<svg width="29" height="30" viewBox="0 0 29 30" fill="none" xmlns="http://www.w3.org/2000/svg">
<path d="M13.4479 12.4141H15.5168C15.654 12.4141 15.7856 12.3596 15.8826 12.2626C15.9796 12.1656 16.0341 12.0341 16.0341 11.8969V8.79351C16.0341 8.38198 15.8706 7.9873 15.5796 7.6963C15.2886 7.4053 14.8939 7.24182 14.4824 7.24182C14.0708 7.24182 13.6761 7.4053 13.3851 7.6963C13.0941 7.9873 12.9307 8.38198 12.9307 8.79351V11.8969C12.9307 12.0341 12.9852 12.1656 13.0822 12.2626C13.1792 12.3596 13.3107 12.4141 13.4479 12.4141ZM13.9651 8.79351C13.9651 8.65634 14.0196 8.52478 14.1166 8.42778C14.2136 8.33078 14.3452 8.27628 14.4824 8.27628C14.6195 8.27628 14.7511 8.33078 14.8481 8.42778C14.9451 8.52478 14.9996 8.65634 14.9996 8.79351V11.3797H13.9651V8.79351Z" fill="white"/>
<path d="M13.4479 19.1381H15.5168C15.654 19.1381 15.7856 19.0836 15.8826 18.9866C15.9796 18.8896 16.0341 18.7581 16.0341 18.6209V15.5175C16.0341 15.106 15.8706 14.7113 15.5796 14.4203C15.2886 14.1293 14.8939 13.9658 14.4824 13.9658C14.0708 13.9658 13.6761 14.1293 13.3851 14.4203C13.0941 14.7113 12.9307 15.106 12.9307 15.5175V18.6209C12.9307 18.7581 12.9852 18.8896 13.0822 18.9866C13.1792 19.0836 13.3107 19.1381 13.4479 19.1381ZM13.9651 15.5175C13.9651 15.3803 14.0196 15.2488 14.1166 15.1518C14.2136 15.0548 14.3452 15.0003 14.4824 15.0003C14.6195 15.0003 14.7511 15.0548 14.8481 15.1518C14.9451 15.2488 14.9996 15.3803 14.9996 15.5175V18.1037H13.9651V15.5175Z" fill="white"/>
<path d="M28.7917 4.26879L24.1366 0.13094C24.0419 0.0465992 23.9195 0 23.7926 0C23.6658 0 23.5434 0.0465992 23.4487 0.13094L19.1376 3.96362L14.8264 0.13094C14.7317 0.0465992 14.6093 0 14.4825 0C14.3556 0 14.2332 0.0465992 14.1385 0.13094L9.82739 3.96362L5.51627 0.13094C5.42155 0.0465992 5.29914 0 5.17231 0C5.04548 0 4.92307 0.0465992 4.82835 0.13094L0.173273 4.26879C0.118702 4.31738 0.0750459 4.37698 0.0451799 4.44367C0.0153139 4.51035 -8.41249e-05 4.58261 3.45665e-07 4.65568V29.4828C3.45665e-07 29.6199 0.0544943 29.7515 0.151494 29.8485C0.248494 29.9455 0.380053 30 0.517231 30H28.4477C28.5849 30 28.7164 29.9455 28.8134 29.8485C28.9104 29.7515 28.9649 29.6199 28.9649 29.4828V4.65568C28.965 4.58261 28.9496 4.51035 28.9198 4.44367C28.8899 4.37698 28.8462 4.31738 28.7917 4.26879ZM23.7926 1.20988L27.9305 4.88791V6.60719L24.1366 3.23433C24.0419 3.14999 23.9195 3.10339 23.7926 3.10339C23.6658 3.10339 23.5434 3.14999 23.4487 3.23433L19.6548 6.60719V4.88791L23.7926 1.20988ZM14.4825 1.20988L18.6203 4.88791V6.60719L14.8264 3.23433C14.7317 3.14999 14.6093 3.10339 14.4825 3.10339C14.3556 3.10339 14.2332 3.14999 14.1385 3.23433L10.3446 6.60719V4.88791L14.4825 1.20988ZM5.17231 1.20988L9.31016 4.88791V6.60719L5.51627 3.23433C5.42155 3.14999 5.29914 3.10339 5.17231 3.10339C5.04548 3.10339 4.92307 3.14999 4.82835 3.23433L1.03446 6.60719V4.88791L5.17231 1.20988ZM1.03446 7.9913L5.17231 4.31327L9.31016 7.9913V28.9655H7.75847V23.276C7.75847 22.5901 7.486 21.9323 7.001 21.4473C6.516 20.9623 5.8582 20.6898 5.17231 20.6898C4.48642 20.6898 3.82862 20.9623 3.34362 21.4473C2.85862 21.9323 2.58616 22.5901 2.58616 23.276V28.9655H1.03446V7.9913ZM6.724 28.9655H3.62062V23.276C3.62062 22.8645 3.7841 22.4698 4.0751 22.1788C4.3661 21.8878 4.76078 21.7243 5.17231 21.7243C5.58385 21.7243 5.97853 21.8878 6.26952 22.1788C6.56052 22.4698 6.724 22.8645 6.724 23.276V28.9655ZM10.3446 7.9913L14.4825 4.31327L18.6203 7.9913V28.9655H17.0686V23.276C17.0686 22.5901 16.7962 21.9323 16.3112 21.4473C15.8262 20.9623 15.1684 20.6898 14.4825 20.6898C13.7966 20.6898 13.1388 20.9623 12.6538 21.4473C12.1688 21.9323 11.8963 22.5901 11.8963 23.276V28.9655H10.3446V7.9913ZM16.0342 28.9655H12.9308V23.276C12.9308 22.8645 13.0943 22.4698 13.3853 22.1788C13.6763 21.8878 14.0709 21.7243 14.4825 21.7243C14.894 21.7243 15.2887 21.8878 15.5797 22.1788C15.8707 22.4698 16.0342 22.8645 16.0342 23.276V28.9655ZM25.3443 28.9655H22.2409V23.276C22.2409 22.8645 22.4044 22.4698 22.6954 22.1788C22.9864 21.8878 23.3811 21.7243 23.7926 21.7243C24.2042 21.7243 24.5988 21.8878 24.8898 22.1788C25.1808 22.4698 25.3443 22.8645 25.3443 23.276V28.9655ZM26.3788 28.9655V23.276C26.3788 22.5901 26.1063 21.9323 25.6213 21.4473C25.1363 20.9623 24.4785 20.6898 23.7926 20.6898C23.1067 20.6898 22.4489 20.9623 21.9639 21.4473C21.4789 21.9323 21.2065 22.5901 21.2065 23.276V28.9655H19.6548V7.9913L23.7926 4.31327L27.9305 7.9913V28.9655H26.3788Z" fill="white"/>
<path d="M23.7924 7.24182C23.3809 7.24182 22.9862 7.4053 22.6952 7.6963C22.4042 7.9873 22.2407 8.38198 22.2407 8.79351V11.8969C22.2407 12.0341 22.2952 12.1656 22.3922 12.2626C22.4892 12.3596 22.6208 12.4141 22.758 12.4141H24.8269C24.9641 12.4141 25.0956 12.3596 25.1926 12.2626C25.2896 12.1656 25.3441 12.0341 25.3441 11.8969V8.79351C25.3441 8.38198 25.1806 7.9873 24.8896 7.6963C24.5986 7.4053 24.204 7.24182 23.7924 7.24182ZM24.3096 11.3797H23.2752V8.79351C23.2752 8.65634 23.3297 8.52478 23.4267 8.42778C23.5237 8.33078 23.6552 8.27628 23.7924 8.27628C23.9296 8.27628 24.0612 8.33078 24.1582 8.42778C24.2552 8.52478 24.3096 8.65634 24.3096 8.79351V11.3797Z" fill="white"/>
<path d="M23.7924 13.9658C23.3809 13.9658 22.9862 14.1293 22.6952 14.4203C22.4042 14.7113 22.2407 15.106 22.2407 15.5175V18.6209C22.2407 18.7581 22.2952 18.8896 22.3922 18.9866C22.4892 19.0836 22.6208 19.1381 22.758 19.1381H24.8269C24.9641 19.1381 25.0956 19.0836 25.1926 18.9866C25.2896 18.8896 25.3441 18.7581 25.3441 18.6209V15.5175C25.3441 15.106 25.1806 14.7113 24.8896 14.4203C24.5986 14.1293 24.204 13.9658 23.7924 13.9658ZM24.3096 18.1037H23.2752V15.5175C23.2752 15.3803 23.3297 15.2488 23.4267 15.1518C23.5237 15.0548 23.6552 15.0003 23.7924 15.0003C23.9296 15.0003 24.0612 15.0548 24.1582 15.1518C24.2552 15.2488 24.3096 15.3803 24.3096 15.5175V18.1037Z" fill="white"/>
<path d="M4.13784 12.4141H6.20676C6.34394 12.4141 6.4755 12.3596 6.5725 12.2626C6.6695 12.1656 6.72399 12.0341 6.72399 11.8969V8.79351C6.72399 8.38198 6.56051 7.9873 6.26951 7.6963C5.97851 7.4053 5.58383 7.24182 5.1723 7.24182C4.76076 7.24182 4.36608 7.4053 4.07509 7.6963C3.78409 7.9873 3.62061 8.38198 3.62061 8.79351V11.8969C3.62061 12.0341 3.6751 12.1656 3.7721 12.2626C3.8691 12.3596 4.00066 12.4141 4.13784 12.4141ZM4.65507 8.79351C4.65507 8.65634 4.70956 8.52478 4.80656 8.42778C4.90356 8.33078 5.03512 8.27628 5.1723 8.27628C5.30948 8.27628 5.44104 8.33078 5.53804 8.42778C5.63504 8.52478 5.68953 8.65634 5.68953 8.79351V11.3797H4.65507V8.79351Z" fill="white"/>
<path d="M4.13784 19.1381H6.20676C6.34394 19.1381 6.4755 19.0836 6.5725 18.9866C6.6695 18.8896 6.72399 18.7581 6.72399 18.6209V15.5175C6.72399 15.106 6.56051 14.7113 6.26951 14.4203C5.97851 14.1293 5.58383 13.9658 5.1723 13.9658C4.76076 13.9658 4.36608 14.1293 4.07509 14.4203C3.78409 14.7113 3.62061 15.106 3.62061 15.5175V18.6209C3.62061 18.7581 3.6751 18.8896 3.7721 18.9866C3.8691 19.0836 4.00066 19.1381 4.13784 19.1381ZM4.65507 15.5175C4.65507 15.3803 4.70956 15.2488 4.80656 15.1518C4.90356 15.0548 5.03512 15.0003 5.1723 15.0003C5.30948 15.0003 5.44104 15.0548 5.53804 15.1518C5.63504 15.2488 5.68953 15.3803 5.68953 15.5175V18.1037H4.65507V15.5175Z" fill="white"/>
</svg>
