<svg width="22" height="20" viewBox="0 0 22 20" fill="none" xmlns="http://www.w3.org/2000/svg">
<path d="M20.2745 9.80933V3.00263C20.2745 1.34695 18.9275 0 17.2719 0H4.29789C2.64221 0 1.29526 1.34699 1.29526 3.00263V9.89713C0.493311 10.7355 0 11.8715 0 13.1206V18.2818C0 19.2292 0.77078 20 1.71823 20C2.66565 20 3.43643 19.2292 3.43643 18.2818V17.7487H18.2197V18.2818C18.2197 19.2292 18.9905 20 19.9379 20C20.8853 20 21.6561 19.2292 21.6561 18.2818V13.1206C21.6561 11.8273 21.1272 10.6554 20.2745 9.80933ZM4.29789 0.845941H17.2719C18.4611 0.845941 19.4286 1.81344 19.4286 3.00263V9.14361C19.1695 8.98411 18.8938 8.84918 18.6047 8.74217V7.33562C18.6047 6.08871 17.5902 5.07425 16.3433 5.07425H12.6665C11.9095 5.07425 11.2388 5.44845 10.8281 6.0212C10.4174 5.44845 9.74664 5.07425 8.98969 5.07425H5.31289C4.06598 5.07425 3.05152 6.08866 3.05152 7.33562V8.74217C2.73002 8.86115 2.4251 9.01461 2.14125 9.19801V3.00263C2.1412 1.81344 3.10867 0.845941 4.29789 0.845941ZM4.66676 8.45379C4.40473 8.45379 4.14774 8.47587 3.89738 8.51757V7.33562C3.89738 6.55516 4.53234 5.92019 5.31281 5.92019H8.98961C9.77007 5.92019 10.405 6.55516 10.405 7.33562V8.45383H4.66676V8.45379ZM11.251 7.33558C11.251 6.55512 11.886 5.92015 12.6664 5.92015H16.3432C17.1237 5.92015 17.7587 6.55512 17.7587 7.33558V8.51753C17.5083 8.47583 17.2513 8.45375 16.9893 8.45375H11.251V7.33558ZM4.66676 9.29973H16.9893C19.0961 9.29973 20.8101 11.0137 20.8101 13.1206V14.3754H16.5679C16.3343 14.3754 16.1449 14.5648 16.1449 14.7983C16.1449 15.0319 16.3343 15.2213 16.5679 15.2213H20.8102V16.9028H0.845941V15.2213H12.3382C12.5718 15.2213 12.7612 15.0319 12.7612 14.7983C12.7612 14.5648 12.5718 14.3754 12.3382 14.3754H0.845941V13.1206C0.845941 11.0137 2.55995 9.29973 4.66676 9.29973ZM2.59048 18.2818C2.59048 18.7627 2.19919 19.1541 1.71823 19.1541C1.23727 19.1541 0.845941 18.7627 0.845941 18.2818V17.7487H2.59048V18.2818ZM19.9379 19.1541C19.4569 19.1541 19.0656 18.7627 19.0656 18.2818V17.7487H20.8102V18.2818C20.8102 18.7627 20.4189 19.1541 19.9379 19.1541Z" fill="#646262"/>
<path d="M14.453 15.2216C14.6867 15.2216 14.8761 15.0321 14.8761 14.7984C14.8761 14.5647 14.6867 14.3752 14.453 14.3752C14.2193 14.3752 14.0298 14.5647 14.0298 14.7984C14.0298 15.0321 14.2193 15.2216 14.453 15.2216Z" fill="#646262"/>
</svg>
