<svg width="20" height="20" viewBox="0 0 20 20" fill="none" xmlns="http://www.w3.org/2000/svg">
<path d="M19.2174 15.7425H4.25738V0.78278C4.25738 0.351175 3.90624 0 3.4746 0H0.78278C0.351136 0 0 0.351175 0 0.78278V19.2172C0 19.6488 0.351136 20 0.78278 20H19.2174C19.649 20 20.0002 19.6488 20.0002 19.2172V16.5252C20.0002 16.0936 19.649 15.7425 19.2174 15.7425ZM3.47452 19.2172H0.78278V14.8966H1.43107C1.6472 14.8966 1.82244 14.7214 1.82244 14.5052C1.82244 14.289 1.6472 14.1138 1.43107 14.1138H0.78278V12.644H2.03521C2.25135 12.644 2.42658 12.4688 2.42658 12.2526C2.42658 12.0364 2.25135 11.8612 2.03521 11.8612H0.78278V10.3914H1.43107C1.6472 10.3914 1.82244 10.2162 1.82244 10C1.82244 9.78383 1.6472 9.60863 1.43107 9.60863H0.78278V8.13881H2.03521C2.25135 8.13881 2.42658 7.96358 2.42658 7.74744C2.42658 7.53127 2.25135 7.35603 2.03521 7.35603H0.78278V5.88622H1.43107C1.6472 5.88622 1.82244 5.71098 1.82244 5.49481C1.82244 5.27864 1.6472 5.10344 1.43107 5.10344H0.78278V3.63354H2.03521C2.25135 3.63354 2.42658 3.45831 2.42658 3.24217C2.42658 3.02604 2.25135 2.8508 2.03521 2.8508H0.78278V0.782819H3.4746L3.47511 19.2173C3.47511 19.2173 3.47495 19.2173 3.4746 19.2173L3.47452 19.2172ZM19.2174 19.2172H17.1228V17.9648C17.1228 17.7486 16.9476 17.5734 16.7314 17.5734C16.5152 17.5734 16.34 17.7487 16.34 17.9648V19.2172H14.8702V18.569C14.8702 18.3528 14.6949 18.1776 14.4787 18.1776C14.2626 18.1776 14.0873 18.3528 14.0873 18.569V19.2172H12.6175V17.9648C12.6175 17.7486 12.4422 17.5734 12.2261 17.5734C12.0099 17.5734 11.8347 17.7487 11.8347 17.9648V19.2172H10.3649V18.569C10.3649 18.3528 10.1897 18.1776 9.97356 18.1776C9.75742 18.1776 9.58219 18.3528 9.58219 18.569V19.2172H8.11233V17.9648C8.11233 17.7486 7.93709 17.5734 7.72096 17.5734C7.50483 17.5734 7.32955 17.7487 7.32955 17.9648V19.2172H5.85973V18.569C5.85973 18.3528 5.6845 18.1776 5.46832 18.1776C5.25219 18.1776 5.07695 18.3528 5.07695 18.569V19.2172H4.25742V16.5252H19.2174V19.2172H19.2174Z" fill="#646262"/>
<path d="M6.15162 11.4003L11.1501 14.2862C11.2709 14.3559 11.4062 14.3907 11.5415 14.3907C11.6769 14.3907 11.8123 14.3559 11.9329 14.2861L16.9315 11.4002C17.1729 11.2608 17.3229 11.0011 17.3229 10.7223V4.95057C17.3229 4.67181 17.1729 4.41205 16.9315 4.27267L11.933 1.38679C11.6916 1.24741 11.3916 1.24733 11.1501 1.38679L6.15166 4.27267C5.91022 4.41201 5.76025 4.67181 5.76025 4.9506V10.7224C5.76025 11.0012 5.91022 11.261 6.15162 11.4003ZM11.916 13.392V12.2228C11.916 12.0067 11.7408 11.8314 11.5246 11.8314C11.3085 11.8314 11.1333 12.0067 11.1333 12.2228V13.3726L6.54299 10.7224V5.37057L11.1333 7.76817V8.69345C11.1333 8.90962 11.3085 9.08482 11.5246 9.08482C11.7408 9.08482 11.916 8.90958 11.916 8.69345V7.76883L16.5401 5.36866V10.7223L11.916 13.392ZM11.5415 2.06464L16.1171 4.70631L11.5253 7.08976L6.96417 4.7074L11.5415 2.06464Z" fill="#646262"/>
<path d="M11.5418 10.8506C11.7579 10.8506 11.9331 10.6754 11.9331 10.4592C11.9331 10.2431 11.7579 10.0679 11.5418 10.0679C11.3256 10.0679 11.1504 10.2431 11.1504 10.4592C11.1504 10.6754 11.3256 10.8506 11.5418 10.8506Z" fill="#646262"/>
<path d="M2.12916 18.2627C2.34531 18.2627 2.52053 18.0875 2.52053 17.8714C2.52053 17.6552 2.34531 17.48 2.12916 17.48C1.91302 17.48 1.73779 17.6552 1.73779 17.8714C1.73779 18.0875 1.91302 18.2627 2.12916 18.2627Z" fill="#646262"/>
</svg>
