<svg width="125" height="30" viewBox="0 0 125 30" fill="none" xmlns="http://www.w3.org/2000/svg">
<path d="M24.7205 7.14286C25.4969 6.36646 25.9627 5.34161 25.9627 4.16149C25.9627 1.86335 24.0683 0 21.7702 0C20.3106 0 19.0062 0.745342 18.2609 1.86335C18.0745 2.08075 1.39752 22.6398 1.24224 22.8571C0.496894 23.6335 0 24.6584 0 25.8385C0 28.1366 1.89441 30 4.19255 30C5.65217 30 6.95652 29.2547 7.70186 28.1366C7.8882 27.9193 24.5652 7.36025 24.7205 7.14286Z" fill="#2F3D7E"/>
<path d="M34.3784 16.8944C35.1548 16.118 35.6206 15.0932 35.6206 13.913C35.6206 11.6149 33.7262 9.75155 31.4281 9.75155C29.9685 9.75155 28.6641 10.4969 27.9188 11.6149C27.7324 11.8323 18.9747 22.6087 18.8194 22.8571C18.043 23.6335 17.5771 24.6584 17.5771 25.8385C17.5771 28.1366 19.4405 30 21.7697 30C23.2293 30 24.5337 29.2547 25.279 28.1366C25.4653 27.9193 34.2231 17.1118 34.3784 16.8944Z" fill="#2F3D7E"/>
<path d="M43.5098 4.16149C43.5098 6.49068 41.6464 8.35404 39.3483 8.35404C37.0191 8.35404 35.1558 6.49068 35.1558 4.16149C35.1558 1.86335 37.0191 0 39.3483 0C41.6464 0 43.5098 1.86335 43.5098 4.16149Z" fill="#ED7D3A"/>
<path d="M8.38509 4.16149C8.38509 6.49068 6.52174 8.35404 4.19255 8.35404C1.89441 8.35404 0 6.49068 0 4.16149C0 1.86335 1.89441 0 4.19255 0C6.52174 0 8.38509 1.86335 8.38509 4.16149Z" fill="#ED7D3A"/>
<path d="M61.0848 24.975C59.7014 24.975 58.5014 24.7167 57.4848 24.2C56.4848 23.6667 55.7098 22.9 55.1598 21.9C54.6264 20.9 54.3598 19.6833 54.3598 18.25V17.325H58.4098V18.475C58.4098 19.275 58.6431 19.925 59.1098 20.425C59.5931 20.9083 60.2514 21.15 61.0848 21.15C61.9014 21.15 62.5431 20.9083 63.0098 20.425C63.4931 19.925 63.7348 19.275 63.7348 18.475V9.325H67.8348V18.25C67.8348 19.6833 67.5598 20.9 67.0098 21.9C66.4764 22.9 65.7014 23.6667 64.6848 24.2C63.6848 24.7167 62.4848 24.975 61.0848 24.975ZM56.4848 9.825V6.25H67.8348V9.825H56.4848ZM72.0492 24.5V10.8H76.0492V24.5H72.0492ZM70.2242 13.75V10.8H76.0492V13.75H70.2242ZM73.5992 9.45C72.8492 9.45 72.2909 9.25833 71.9242 8.875C71.5742 8.475 71.3992 7.975 71.3992 7.375C71.3992 6.75833 71.5742 6.25833 71.9242 5.875C72.2909 5.475 72.8492 5.275 73.5992 5.275C74.3492 5.275 74.8992 5.475 75.2492 5.875C75.6159 6.25833 75.7992 6.75833 75.7992 7.375C75.7992 7.975 75.6159 8.475 75.2492 8.875C74.8992 9.25833 74.3492 9.45 73.5992 9.45ZM82.3988 24.5L78.2988 10.8H82.4238L86.2738 24.5H82.3988ZM83.6488 24.5V21.175H87.6738V24.5H83.6488ZM85.1238 24.5L88.4488 10.8H92.2988L88.7488 24.5H85.1238ZM99.2908 24.925C97.7075 24.925 96.4908 24.4167 95.6408 23.4C94.7908 22.3667 94.3658 20.8167 94.3658 18.75V10.8H98.3658V18.95C98.3658 19.6833 98.5742 20.2667 98.9908 20.7C99.4075 21.1333 99.9658 21.35 100.666 21.35C101.382 21.35 101.966 21.125 102.416 20.675C102.866 20.225 103.091 19.6167 103.091 18.85V10.8H107.091V24.5H103.916V18.725H104.191C104.191 20.1083 104.007 21.2667 103.641 22.2C103.291 23.1167 102.766 23.8 102.066 24.25C101.366 24.7 100.499 24.925 99.4658 24.925H99.2908ZM109.254 24.5L113.504 17.15L113.404 17.775L109.404 10.8H113.729L116.204 15.45H116.604L118.929 10.8H123.004L119.179 17.825L119.279 17.3L123.779 24.5H119.429L116.479 19.525H116.079L113.304 24.5H109.254Z" fill="#2F3D7E"/>
<path d="M76.1992 7.49071C76.1992 8.88476 75.084 10 73.7085 10C72.3145 10 71.1992 8.88476 71.1992 7.49071C71.1992 6.11524 72.3145 5 73.7085 5C75.084 5 76.1992 6.11524 76.1992 7.49071Z" fill="#ED7D3A"/>
</svg>
