<svg width="30" height="30" viewBox="0 0 30 30" fill="none" xmlns="http://www.w3.org/2000/svg">
<path d="M2.11386 28.0861H2.31386V27.8861V8.45764C2.31386 7.72701 2.71917 7.07218 3.37132 6.74563L16.0541 0.40421C16.0542 0.404189 16.0542 0.404168 16.0543 0.404147C16.6542 0.105186 17.348 0.135984 17.9166 0.487308C18.4853 0.838672 18.8237 1.44642 18.8237 2.11606V9.91832V10.1183H19.0237H25.3653C26.4206 10.1183 27.2791 10.9768 27.2791 12.0322V27.8861V28.0861H27.4791H28.5361C29.0102 28.0861 29.3941 28.4702 29.3941 28.9431C29.3941 29.4162 29.011 29.8 28.5371 29.8H1.05693C0.583035 29.8 0.2 29.4162 0.2 28.9431C0.2 28.47 0.583035 28.0861 1.05693 28.0861H2.11386ZM19.0247 11.8322H18.8247V12.0322V27.8861V28.0861H19.0247H25.3663H25.5663V27.8861V12.0322V11.8322H25.3663H19.0247ZM4.02772 27.8861V28.0861H4.22772H16.9109H17.1109V27.8861V2.11606V1.79245L16.8214 1.93717L4.13828 8.27876L4.02772 8.33404V8.45764V27.8861ZM6.54158 12.0322C6.54158 11.5591 6.92462 11.1753 7.39851 11.1753H13.7401C14.214 11.1753 14.597 11.5591 14.597 12.0322C14.597 12.5053 14.214 12.8891 13.7401 12.8891H7.39851C6.92462 12.8891 6.54158 12.5053 6.54158 12.0322ZM7.39851 15.403H13.7401C14.214 15.403 14.597 15.7868 14.597 16.2599C14.597 16.733 14.214 17.1168 13.7401 17.1168H7.39851C6.92462 17.1168 6.54158 16.733 6.54158 16.2599C6.54158 15.7868 6.92462 15.403 7.39851 15.403ZM7.39851 19.6307H13.7401C14.214 19.6307 14.597 20.0145 14.597 20.4876C14.597 20.9607 14.214 21.3446 13.7401 21.3446H7.39851C6.92462 21.3446 6.54158 20.9607 6.54158 20.4876C6.54158 20.0145 6.92462 19.6307 7.39851 19.6307ZM7.39851 23.8584H13.7401C14.214 23.8584 14.597 24.2422 14.597 24.7153C14.597 25.1884 14.214 25.5723 13.7401 25.5723H7.39851C6.92462 25.5723 6.54158 25.1884 6.54158 24.7153C6.54158 24.2422 6.92462 23.8584 7.39851 23.8584Z" fill="white" stroke="white" stroke-width="0.4"/>
</svg>
