<svg width="35" height="30" viewBox="0 0 35 30" fill="none" xmlns="http://www.w3.org/2000/svg">
<path d="M31.8441 27.7574H12.3743C12.157 27.7574 11.9863 27.5866 11.9863 27.3694V14.0688C11.9863 13.8515 12.157 13.6808 12.3743 13.6808C12.5916 13.6808 12.7623 13.8515 12.7623 14.0688V26.9814H31.4483V14.0688C31.4483 13.8515 31.619 13.6808 31.8363 13.6808C32.0536 13.6808 32.2243 13.8515 32.2243 14.0688V27.3694C32.2321 27.5866 32.0536 27.7574 31.8441 27.7574Z" fill="white"/>
<path d="M31.844 14.4568C31.7354 14.4568 31.6267 14.4102 31.5491 14.3249L22.1052 3.37558L12.6691 14.3249C12.5295 14.4878 12.2811 14.5034 12.1182 14.3637C11.9552 14.224 11.9397 13.9757 12.0794 13.8127L21.8181 2.52975C21.8957 2.44439 21.9966 2.39783 22.113 2.39783C22.2294 2.39783 22.3303 2.44439 22.4079 2.52975L32.1389 13.8205C32.2785 13.9834 32.263 14.224 32.1001 14.3714C32.0225 14.4258 31.9294 14.4568 31.844 14.4568Z" fill="white"/>
<path d="M10.3721 14.4801C10.2247 14.4801 10.085 14.3947 10.0229 14.255C9.96085 14.1154 9.98413 13.9524 10.0772 13.836L21.8103 0.131919C21.8801 0.0465598 21.9888 0 22.1052 0C22.2216 0 22.3225 0.0465598 22.4001 0.131919L34.203 13.8205C34.3038 13.9369 34.3271 14.0998 34.265 14.2318C34.203 14.3714 34.0633 14.4568 33.9158 14.4568H31.8439C31.6267 14.4568 31.4559 14.2861 31.4559 14.0688C31.4559 13.8515 31.6267 13.6808 31.8439 13.6808H33.07L22.1129 0.977755L11.218 13.6963L12.3742 13.6886C12.5837 13.6886 12.7622 13.8593 12.7622 14.0766C12.7622 14.2938 12.5915 14.4646 12.3742 14.4646L10.3721 14.4801Z" fill="white"/>
<path d="M12.3744 27.7573H1.85187C1.75099 27.7573 1.65011 27.7185 1.58027 27.6409C1.51043 27.5633 1.46387 27.4702 1.46387 27.3616L1.54923 10.2819C1.54923 10.0646 1.71995 9.89392 1.93722 9.89392H13.6315C13.8488 9.89392 14.0195 10.0646 14.0195 10.2819C14.0195 10.4992 13.8488 10.6699 13.6315 10.6699H2.31746L2.23986 26.9813H12.3744C12.5916 26.9813 12.7624 27.1521 12.7624 27.3693C12.7624 27.5866 12.5916 27.7573 12.3744 27.7573Z" fill="white"/>
<path d="M1.93711 10.67H0.392881C0.175602 10.67 0.00488281 10.4993 0.00488281 10.282V8.76104C0.00488281 8.66017 0.0436826 8.55929 0.121282 8.48945C0.191122 8.41961 0.292001 8.37305 0.392881 8.37305L14.8574 8.46617C15.0747 8.46617 15.2454 8.64465 15.2454 8.85417C15.2454 9.07144 15.067 9.24216 14.8574 9.24216L0.780879 9.1568V9.90176H1.93711C2.15439 9.90176 2.32511 10.0725 2.32511 10.2898C2.32511 10.507 2.14663 10.67 1.93711 10.67Z" fill="white"/>
<path d="M0.39294 9.14895C0.261021 9.14895 0.129102 9.07911 0.0515021 8.95495C-0.0571373 8.76871 0.0127023 8.52815 0.198941 8.42727C3.07013 6.79768 4.38932 3.01858 4.40484 2.97978C4.45916 2.82458 4.6066 2.71594 4.76956 2.71594H19.7851C20.0024 2.71594 20.1731 2.88666 20.1731 3.10394C20.1731 3.32122 20.0024 3.49194 19.7851 3.49194H5.04115C4.67644 4.42313 3.2874 7.56592 0.586939 9.10239C0.52486 9.13343 0.45502 9.14895 0.39294 9.14895Z" fill="white"/>
<path d="M22.1439 13.6576C20.1806 13.6576 18.5898 12.059 18.5898 10.1035C18.5898 8.14799 20.1884 6.54944 22.1439 6.54944C24.0994 6.54944 25.698 8.14799 25.698 10.1035C25.698 12.059 24.0994 13.6576 22.1439 13.6576ZM22.1439 7.31767C20.6074 7.31767 19.3658 8.56703 19.3658 10.0957C19.3658 11.6245 20.6152 12.8738 22.1439 12.8738C23.6726 12.8738 24.922 11.6245 24.922 10.0957C24.922 8.56703 23.6726 7.31767 22.1439 7.31767Z" fill="white"/>
<path d="M22.1443 13.6576C21.9271 13.6576 21.7563 13.4868 21.7563 13.2696V6.93744C21.7563 6.72016 21.9271 6.54944 22.1443 6.54944C22.3616 6.54944 22.5323 6.72016 22.5323 6.93744V13.2696C22.5323 13.4791 22.3539 13.6576 22.1443 13.6576Z" fill="white"/>
<path d="M25.31 10.4914H18.9778C18.7606 10.4914 18.5898 10.3207 18.5898 10.1035C18.5898 9.88617 18.7606 9.71545 18.9778 9.71545H25.31C25.5272 9.71545 25.698 9.88617 25.698 10.1035C25.698 10.3207 25.5195 10.4914 25.31 10.4914Z" fill="white"/>
<path d="M9.15395 18.4919H4.73077C4.51349 18.4919 4.34277 18.3212 4.34277 18.1039V13.7584C4.34277 13.5411 4.51349 13.3704 4.73077 13.3704H9.15395C9.37123 13.3704 9.54195 13.5411 9.54195 13.7584V18.1039C9.54195 18.3135 9.36347 18.4919 9.15395 18.4919ZM5.11877 17.7159H8.76595V14.1464H5.11877V17.7159Z" fill="white"/>
<path d="M9.15395 25.3208H4.73077C4.51349 25.3208 4.34277 25.1501 4.34277 24.9328V20.5872C4.34277 20.3699 4.51349 20.1992 4.73077 20.1992H9.15395C9.37123 20.1992 9.54195 20.3699 9.54195 20.5872V24.9328C9.54195 25.1423 9.36347 25.3208 9.15395 25.3208ZM5.11877 24.5448H8.76595V20.9752H5.11877V24.5448Z" fill="white"/>
<path d="M6.9422 18.4919C6.72492 18.4919 6.5542 18.3212 6.5542 18.1039V13.7584C6.5542 13.5411 6.72492 13.3704 6.9422 13.3704C7.15948 13.3704 7.3302 13.5411 7.3302 13.7584V18.1039C7.3302 18.3135 7.15172 18.4919 6.9422 18.4919Z" fill="white"/>
<path d="M9.11492 16.3192H4.76935C4.55207 16.3192 4.38135 16.1485 4.38135 15.9312C4.38135 15.7139 4.55207 15.5432 4.76935 15.5432H9.11492C9.3322 15.5432 9.50292 15.7139 9.50292 15.9312C9.50292 16.1485 9.32444 16.3192 9.11492 16.3192Z" fill="white"/>
<path d="M6.9422 25.3208C6.72492 25.3208 6.5542 25.1501 6.5542 24.9328V20.5872C6.5542 20.3699 6.72492 20.1992 6.9422 20.1992C7.15948 20.1992 7.3302 20.3699 7.3302 20.5872V24.9328C7.3302 25.1423 7.15172 25.3208 6.9422 25.3208Z" fill="white"/>
<path d="M9.11492 23.1479H4.76935C4.55207 23.1479 4.38135 22.9772 4.38135 22.7599C4.38135 22.5427 4.55207 22.3719 4.76935 22.3719H9.11492C9.3322 22.3719 9.50292 22.5427 9.50292 22.7599C9.50292 22.9772 9.32444 23.1479 9.11492 23.1479Z" fill="white"/>
<path d="M27.0717 27.7574C26.8544 27.7574 26.6837 27.5867 26.6837 27.3694V26.2364H17.527V27.3694C17.527 27.5867 17.3563 27.7574 17.139 27.7574C16.9217 27.7574 16.751 27.5867 16.751 27.3694V25.8484C16.751 25.6312 16.9217 25.4604 17.139 25.4604H27.0717C27.289 25.4604 27.4597 25.6312 27.4597 25.8484V27.3694C27.4597 27.5867 27.289 27.7574 27.0717 27.7574Z" fill="white"/>
<path d="M25.7136 26.2364C25.4964 26.2364 25.3256 26.0657 25.3256 25.8484V15.5277H18.8849V25.8484C18.8849 26.0657 18.7142 26.2364 18.4969 26.2364C18.2796 26.2364 18.1089 26.0657 18.1089 25.8484V15.1397C18.1089 14.9224 18.2796 14.7517 18.4969 14.7517H25.7136C25.9309 14.7517 26.1016 14.9224 26.1016 15.1397V25.8484C26.1016 26.058 25.9309 26.2364 25.7136 26.2364Z" fill="white"/>
<path d="M20.0799 21.9297C19.8626 21.9297 19.6919 21.7589 19.6919 21.5417V19.4465C19.6919 19.2292 19.8626 19.0585 20.0799 19.0585C20.2972 19.0585 20.4679 19.2292 20.4679 19.4465V21.5417C20.4679 21.7512 20.2894 21.9297 20.0799 21.9297Z" fill="white"/>
<path d="M16.813 23.0549H14.097C13.8797 23.0549 13.709 22.8841 13.709 22.6669V15.1397C13.709 14.9224 13.8797 14.7517 14.097 14.7517H16.813C17.0302 14.7517 17.201 14.9224 17.201 15.1397V22.6669C17.201 22.8764 17.0302 23.0549 16.813 23.0549ZM14.485 22.2789H16.425V15.5277H14.485V22.2789Z" fill="white"/>
<path d="M30.1216 23.0549H27.4056C27.1883 23.0549 27.0176 22.8841 27.0176 22.6669V15.1397C27.0176 14.9224 27.1883 14.7517 27.4056 14.7517H30.1216C30.3388 14.7517 30.5096 14.9224 30.5096 15.1397V22.6669C30.5096 22.8764 30.3388 23.0549 30.1216 23.0549ZM27.7936 22.2789H29.7336V15.5277H27.7936V22.2789Z" fill="white"/>
<path d="M16.813 19.2913H14.097C13.8797 19.2913 13.709 19.1205 13.709 18.9033C13.709 18.686 13.8797 18.5153 14.097 18.5153H16.813C17.0302 18.5153 17.201 18.686 17.201 18.9033C17.201 19.1205 17.0302 19.2913 16.813 19.2913Z" fill="white"/>
<path d="M30.1216 19.2913H27.4056C27.1883 19.2913 27.0176 19.1205 27.0176 18.9033C27.0176 18.686 27.1883 18.5153 27.4056 18.5153H30.1216C30.3388 18.5153 30.5096 18.686 30.5096 18.9033C30.5096 19.1205 30.3388 19.2913 30.1216 19.2913Z" fill="white"/>
<path d="M33.4114 29.9999H0.889463C0.672184 29.9999 0.501465 29.8292 0.501465 29.6119V27.3693C0.501465 27.152 0.672184 26.9813 0.889463 26.9813H33.4114C33.6287 26.9813 33.7994 27.152 33.7994 27.3693V29.6119C33.7994 29.8215 33.6287 29.9999 33.4114 29.9999ZM1.27746 29.224H33.0234V27.7573H1.27746V29.224Z" fill="white"/>
</svg>
