<svg width="164" height="164" viewBox="0 0 164 164" fill="none" xmlns="http://www.w3.org/2000/svg">
<g opacity="0.5">
<circle cx="5" cy="5" r="5" fill="#ED7D3A"/>
<circle cx="27" cy="5" r="5" fill="#ED7D3A"/>
<circle cx="49" cy="5" r="5" fill="#ED7D3A"/>
<circle cx="71" cy="5" r="5" fill="#ED7D3A"/>
<circle cx="93" cy="5" r="5" fill="#ED7D3A"/>
<circle cx="115" cy="5" r="5" fill="#ED7D3A"/>
<circle cx="5" cy="27" r="5" fill="#ED7D3A"/>
<circle cx="27" cy="27" r="5" fill="#ED7D3A"/>
<circle cx="49" cy="27" r="5" fill="#ED7D3A"/>
<circle cx="71" cy="27" r="5" fill="#ED7D3A"/>
<circle cx="93" cy="27" r="5" fill="#ED7D3A"/>
<circle cx="115" cy="27" r="5" fill="#ED7D3A"/>
<circle cx="5" cy="49" r="5" fill="#ED7D3A"/>
<circle cx="27" cy="49" r="5" fill="#ED7D3A"/>
<circle cx="49" cy="49" r="5" fill="#ED7D3A"/>
<circle cx="71" cy="49" r="5" fill="#ED7D3A"/>
<circle cx="93" cy="49" r="5" fill="#ED7D3A"/>
<circle cx="115" cy="49" r="5" fill="#ED7D3A"/>
<circle cx="5" cy="71" r="5" fill="#ED7D3A"/>
<circle cx="27" cy="71" r="5" fill="#ED7D3A"/>
<circle cx="49" cy="71" r="5" fill="#ED7D3A"/>
<circle cx="71" cy="71" r="5" fill="#ED7D3A"/>
<circle cx="93" cy="71" r="5" fill="#ED7D3A"/>
<circle cx="115" cy="71" r="5" fill="#ED7D3A"/>
<circle cx="5" cy="93" r="5" fill="#ED7D3A"/>
<circle cx="27" cy="93" r="5" fill="#ED7D3A"/>
<circle cx="49" cy="93" r="5" fill="#ED7D3A"/>
<circle cx="71" cy="93" r="5" fill="#ED7D3A"/>
<circle cx="93" cy="93" r="5" fill="#ED7D3A"/>
<circle cx="115" cy="93" r="5" fill="#ED7D3A"/>
<circle cx="5" cy="115" r="5" fill="#ED7D3A"/>
<circle cx="27" cy="115" r="5" fill="#ED7D3A"/>
<circle cx="49" cy="115" r="5" fill="#ED7D3A"/>
<circle cx="71" cy="115" r="5" fill="#ED7D3A"/>
<circle cx="93" cy="115" r="5" fill="#ED7D3A"/>
<circle cx="115" cy="115" r="5" fill="#ED7D3A"/>
<circle cx="5" cy="137" r="5" fill="#ED7D3A"/>
<circle cx="27" cy="137" r="5" fill="#ED7D3A"/>
<circle cx="49" cy="137" r="5" fill="#ED7D3A"/>
<circle cx="71" cy="137" r="5" fill="#ED7D3A"/>
<circle cx="93" cy="137" r="5" fill="#ED7D3A"/>
<circle cx="115" cy="137" r="5" fill="#ED7D3A"/>
<circle cx="5" cy="159" r="5" fill="#ED7D3A"/>
<circle cx="27" cy="159" r="5" fill="#ED7D3A"/>
<circle cx="49" cy="159" r="5" fill="#ED7D3A"/>
<circle cx="71" cy="159" r="5" fill="#ED7D3A"/>
<circle cx="93" cy="159" r="5" fill="#ED7D3A"/>
<circle cx="115" cy="159" r="5" fill="#ED7D3A"/>
<circle cx="137" cy="5" r="5" fill="#ED7D3A"/>
<circle cx="159" cy="5" r="5" fill="#ED7D3A"/>
<circle cx="137" cy="27" r="5" fill="#ED7D3A"/>
<circle cx="159" cy="27" r="5" fill="#ED7D3A"/>
<circle cx="137" cy="49" r="5" fill="#ED7D3A"/>
<circle cx="159" cy="49" r="5" fill="#ED7D3A"/>
<circle cx="137" cy="71" r="5" fill="#ED7D3A"/>
<circle cx="159" cy="71" r="5" fill="#ED7D3A"/>
<circle cx="137" cy="93" r="5" fill="#ED7D3A"/>
<circle cx="159" cy="93" r="5" fill="#ED7D3A"/>
<circle cx="137" cy="115" r="5" fill="#ED7D3A"/>
<circle cx="159" cy="115" r="5" fill="#ED7D3A"/>
<circle cx="137" cy="137" r="5" fill="#ED7D3A"/>
<circle cx="159" cy="137" r="5" fill="#ED7D3A"/>
<circle cx="137" cy="159" r="5" fill="#ED7D3A"/>
<circle cx="159" cy="159" r="5" fill="#ED7D3A"/>
</g>
</svg>
