<svg width="44" height="30" viewBox="0 0 44 30" fill="none" xmlns="http://www.w3.org/2000/svg">
<path d="M24.7205 7.14286C25.4969 6.36646 25.9627 5.34161 25.9627 4.16149C25.9627 1.86335 24.0683 0 21.7702 0C20.3106 0 19.0062 0.745342 18.2609 1.86335C18.0745 2.08075 1.39752 22.6398 1.24224 22.8571C0.496894 23.6335 0 24.6584 0 25.8385C0 28.1366 1.89441 30 4.19255 30C5.65217 30 6.95652 29.2547 7.70186 28.1366C7.8882 27.9193 24.5652 7.36025 24.7205 7.14286Z" fill="white"/>
<path d="M34.3794 16.8943C35.1558 16.1179 35.6216 15.0931 35.6216 13.913C35.6216 11.6148 33.7272 9.75146 31.4291 9.75146C29.9694 9.75146 28.6651 10.4968 27.9197 11.6148C27.7334 11.8322 18.9756 22.6086 18.8204 22.8571C18.044 23.6335 17.5781 24.6583 17.5781 25.8384C17.5781 28.1366 19.4415 29.9999 21.7707 29.9999C23.2303 29.9999 24.5346 29.2546 25.28 28.1366C25.4663 27.9192 34.2241 17.1117 34.3794 16.8943Z" fill="white"/>
<path d="M43.5103 4.16149C43.5103 6.49068 41.6469 8.35404 39.3488 8.35404C37.0196 8.35404 35.1562 6.49068 35.1562 4.16149C35.1562 1.86335 37.0196 0 39.3488 0C41.6469 0 43.5103 1.86335 43.5103 4.16149Z" fill="#ED7D3A"/>
<path d="M8.38509 4.16149C8.38509 6.49068 6.52174 8.35404 4.19255 8.35404C1.89441 8.35404 0 6.49068 0 4.16149C0 1.86335 1.89441 0 4.19255 0C6.52174 0 8.38509 1.86335 8.38509 4.16149Z" fill="#ED7D3A"/>
</svg>
