<svg width="149" height="36" viewBox="0 0 149 36" fill="none" xmlns="http://www.w3.org/2000/svg">
<circle cx="16" cy="20" r="16" fill="black"/>
<circle cx="16" cy="18" r="6" stroke="white" stroke-width="4"/>
<path d="M9.44721 27.1056C9.786 26.428 10.4785 26 11.2361 26H24L22.5528 28.8944C22.214 29.572 21.5215 30 20.7639 30H8L9.44721 27.1056Z" fill="white"/>
<path d="M55 17.528C55 22.52 51.952 26.288 46.576 26.288C40.936 26.288 38.056 23.336 38.056 17.672C38.056 12.68 41.104 8.912 46.48 8.912C52.12 8.912 55 11.864 55 17.528ZM51.112 18.944C51.112 13.688 49.192 10.328 46 10.328C43.264 10.328 41.968 12.44 41.968 16.256C41.968 21.464 43.864 24.824 47.08 24.824C49.744 24.824 51.112 22.76 51.112 18.944ZM53.968 27.848L54.256 27.872V29.048C53.8 30.2 52.192 32.096 50.488 32.096C49.048 32.096 47.776 31.424 46.576 30.776C45.328 30.104 44.176 29.408 42.928 29.408C42.16 29.408 41.248 30.248 40.72 31.016L40.48 30.968V29.744C40.936 28.616 42.544 26.72 44.248 26.72C45.736 26.72 47.104 27.464 48.424 28.16C49.576 28.784 50.728 29.384 51.856 29.384C52.648 29.384 53.44 28.592 53.968 27.848ZM65.5827 26.024L65.4147 25.856L65.2467 23.84C64.2387 25.304 62.6067 26.288 61.0947 26.288C58.2147 26.288 57.2547 24.56 57.2547 22.064V16.064L55.5987 15.104L55.8147 14.264C56.5347 14.312 57.5427 14.336 58.4307 14.336C59.2467 14.336 60.0867 14.312 60.6627 14.288L60.7827 14.408V21.392C60.7827 23.12 61.3827 23.912 62.5587 23.912C63.3987 23.912 64.1907 23.624 64.9347 23V15.92L63.3267 15.104L63.5427 14.264C64.2627 14.288 65.5587 14.336 66.3027 14.336C67.0227 14.336 67.8147 14.312 68.3187 14.288L68.4627 14.384V24.248C69.0147 24.632 69.6867 24.92 70.2387 25.136L69.9267 26C69.3987 25.976 68.4147 25.952 67.8147 25.952C67.1907 25.952 66.3267 25.976 65.5827 26.024ZM83.0714 24.512L82.9274 25.448C82.3274 25.928 81.2954 26.288 80.2154 26.288C78.9914 26.288 78.3194 25.64 78.1034 24.56C77.2154 25.592 75.7754 26.288 74.4314 26.288C72.1994 26.288 70.8314 25.136 70.8314 23.216C70.8314 21.008 72.3914 19.784 75.1994 19.784C76.0154 19.784 76.9754 19.928 77.6954 20.168V18.728C77.6954 16.352 77.0474 15.584 74.5514 15.464L73.1594 18.632H72.2474C72.0554 17.624 71.7434 16.52 71.3354 15.608L71.3594 15.392C72.6074 14.648 74.8634 14 76.7114 14C79.7834 14 81.2234 15.632 81.2234 18.2V22.832C81.2234 24.224 81.4154 24.68 82.2074 24.68C82.4714 24.68 82.7354 24.656 83.0714 24.512ZM74.0474 22.544C74.0474 23.648 74.6234 24.32 75.7034 24.32C76.3754 24.32 77.0474 24.032 77.6954 23.576V21.32C77.1194 21.056 76.4714 21.008 75.8954 21.008C74.8634 21.008 74.0474 21.464 74.0474 22.544ZM92.7141 25.904L92.5461 23.48H92.4981C91.8741 24.944 90.3381 26.264 88.3221 26.264C85.4181 26.264 83.4261 23.912 83.4261 20.384C83.4261 16.592 86.0901 14 89.5941 14C90.5301 14 91.4421 14.192 92.2101 14.504V10.4L90.6261 9.824V8.936C92.2821 8.768 93.7221 8.432 95.2581 8L95.7381 8.168V24.224C96.3381 24.632 97.0101 24.944 97.5141 25.136L97.2261 26C96.6501 25.976 95.9301 25.952 95.3301 25.952C94.4661 25.952 93.6021 25.976 92.8581 26L92.7141 25.904ZM87.0501 19.472C87.0501 22.496 88.1781 24.104 89.7621 24.104C90.7941 24.104 91.6581 23.48 92.2101 22.4V16.832C91.4901 16.064 90.6261 15.584 89.5701 15.584C87.9381 15.584 87.0501 16.88 87.0501 19.472ZM110.608 24.296L112.072 25.136L111.712 26C111.136 25.976 110.464 25.952 109.84 25.952C109.264 25.952 108.592 25.976 107.728 26L104.392 20.144C104.008 20.48 103.216 21.152 102.832 21.488V24.224C103.384 24.584 103.984 24.896 104.584 25.136L104.296 26C103.312 25.952 102.232 25.928 101.248 25.928C100.264 25.928 99.232 25.952 98.224 26L97.96 25.136C98.464 24.92 98.896 24.68 99.304 24.368V10.4L97.72 9.824V8.936C99.424 8.768 100.936 8.408 102.352 8L102.832 8.168V20.072L107.176 15.92L105.4 15.224L105.736 14.264C106.672 14.336 107.584 14.384 108.568 14.384C109.48 14.384 110.656 14.36 111.28 14.288L111.664 15.272C109.576 16.112 107.68 17.504 105.352 19.376L105.4 19.52L107.488 19.112L110.608 24.296ZM118.538 26.288C114.482 26.288 111.986 24.368 111.986 20.168C111.986 16.688 114.578 14 118.538 14C122.57 14 125.09 15.92 125.09 20.12C125.09 23.6 122.474 26.288 118.538 26.288ZM118.802 24.92C120.434 24.92 121.442 23.792 121.442 20.984C121.442 17.408 119.93 15.368 118.25 15.368C116.642 15.368 115.634 16.496 115.634 19.304C115.634 22.856 117.026 24.92 118.802 24.92ZM148.631 25.136L148.343 26C147.383 25.952 146.303 25.928 145.319 25.928C144.335 25.928 143.303 25.952 142.271 26L142.007 25.136C142.511 24.92 142.943 24.68 143.351 24.368V18.896C143.351 17.12 142.727 16.376 141.455 16.376C140.543 16.376 139.727 16.808 138.983 17.6V24.224C139.511 24.584 140.111 24.896 140.735 25.136L140.447 26C139.487 25.952 138.383 25.928 137.399 25.928C136.439 25.928 135.407 25.952 134.375 26L134.111 25.136C134.615 24.92 135.047 24.68 135.455 24.368V18.896C135.455 17.12 134.807 16.376 133.535 16.376C132.647 16.376 131.831 16.808 131.087 17.576V24.224C131.615 24.584 132.239 24.896 132.839 25.136L132.551 26C131.567 25.952 130.487 25.928 129.503 25.928C128.543 25.928 127.487 25.952 126.479 26L126.215 25.136C126.719 24.92 127.151 24.68 127.559 24.368V16.352L126.071 15.776V14.888C127.607 14.768 129.119 14.384 130.511 14L130.943 14.192L130.631 16.568C131.855 15.032 133.439 14 135.023 14C137.183 14 138.263 14.888 138.743 16.328C139.919 14.936 141.431 14 142.919 14C145.991 14 146.879 15.728 146.879 18.224V24.224C147.431 24.608 148.007 24.896 148.631 25.136Z" fill="black"/>
</svg>
