<svg width="18" height="18" viewBox="0 0 18 18" fill="none" xmlns="http://www.w3.org/2000/svg">
<path d="M5.22703 6.02297C5.12148 5.91742 5.06219 5.77427 5.06219 5.625C5.06219 5.47573 5.12148 5.33258 5.22703 5.22703C5.33258 5.12148 5.47573 5.06219 5.625 5.06219C5.77427 5.06219 5.91742 5.12148 6.02297 5.22703L8.4375 7.64227V1.6875C8.4375 1.53832 8.49676 1.39524 8.60225 1.28975C8.70774 1.18426 8.85082 1.125 9 1.125C9.14918 1.125 9.29226 1.18426 9.39775 1.28975C9.50324 1.39524 9.5625 1.53832 9.5625 1.6875V7.64227L11.977 5.22703C12.0826 5.12148 12.2257 5.06219 12.375 5.06219C12.5243 5.06219 12.6674 5.12148 12.773 5.22703C12.8785 5.33258 12.9378 5.47573 12.9378 5.625C12.9378 5.77427 12.8785 5.91742 12.773 6.02297L9.39797 9.39797C9.34573 9.45027 9.28369 9.49176 9.2154 9.52007C9.14712 9.54837 9.07392 9.56294 9 9.56294C8.92608 9.56294 8.85288 9.54837 8.7846 9.52007C8.71631 9.49176 8.65427 9.45027 8.60203 9.39797L5.22703 6.02297ZM16.875 9.5625V14.0625C16.875 14.3609 16.7565 14.647 16.5455 14.858C16.3345 15.069 16.0484 15.1875 15.75 15.1875H2.25C1.95163 15.1875 1.66548 15.069 1.4545 14.858C1.24353 14.647 1.125 14.3609 1.125 14.0625V9.5625C1.125 9.26413 1.24353 8.97798 1.4545 8.767C1.66548 8.55603 1.95163 8.4375 2.25 8.4375H5.93438C5.97132 8.43747 6.00791 8.44472 6.04205 8.45884C6.07619 8.47295 6.10722 8.49366 6.13336 8.51977L7.80469 10.1953C7.96146 10.3526 8.14775 10.4775 8.35287 10.5626C8.55799 10.6478 8.7779 10.6916 9 10.6916C9.2221 10.6916 9.44201 10.6478 9.64713 10.5626C9.85225 10.4775 10.0385 10.3526 10.1953 10.1953L11.8688 8.52187C11.9207 8.46888 11.9914 8.43856 12.0656 8.4375H15.75C16.0484 8.4375 16.3345 8.55603 16.5455 8.767C16.7565 8.97798 16.875 9.26413 16.875 9.5625ZM14.0625 11.8125C14.0625 11.6456 14.013 11.4825 13.9203 11.3437C13.8276 11.205 13.6958 11.0968 13.5416 11.033C13.3875 10.9691 13.2178 10.9524 13.0541 10.985C12.8905 11.0175 12.7401 11.0979 12.6221 11.2159C12.5041 11.3339 12.4238 11.4842 12.3912 11.6479C12.3587 11.8116 12.3754 11.9812 12.4392 12.1354C12.5031 12.2896 12.6112 12.4213 12.75 12.5141C12.8887 12.6068 13.0519 12.6562 13.2188 12.6562C13.4425 12.6562 13.6571 12.5674 13.8154 12.4091C13.9736 12.2509 14.0625 12.0363 14.0625 11.8125Z" fill="white"/>
</svg>
