<svg width="289" height="140" viewBox="0 0 289 140" fill="none" xmlns="http://www.w3.org/2000/svg">
<g clip-path="url(#clip0_317_8083)">
<path d="M36 51C44.8366 51 52 43.8366 52 35C52 26.1634 44.8366 19 36 19C27.1634 19 20 26.1634 20 35C20 43.8366 27.1634 51 36 51Z" fill="#4353FF"/>
<path d="M40.7053 33.1002L39.2553 37.6702C39.2553 37.3202 38.2553 29.7402 38.2553 29.7402C35.9553 29.7402 34.7353 31.3702 34.0953 33.1002L32.3253 37.6802C32.3253 37.3502 32.0753 33.1402 32.0753 33.1402C31.9899 32.2289 31.5733 31.3804 30.9043 30.7557C30.2353 30.1309 29.3604 29.7732 28.4453 29.7502L30.3253 41.2302C32.7253 41.2302 34.0253 39.6002 34.6953 37.8702L36.1953 33.9702C36.1953 34.1302 37.1953 41.2302 37.1953 41.2302C38.1767 41.229 39.1322 40.9152 39.9233 40.3345C40.7144 39.7537 41.3 38.9362 41.5953 38.0002L44.9953 29.7402C42.5953 29.7402 41.3353 31.3702 40.6953 33.1002H40.7053Z" fill="white"/>
</g>
<rect x="0.5" y="0.5" width="288" height="139" stroke="#E9E9E9"/>
<g clip-path="url(#clip1_317_8083)">
<path d="M36 105C36 103.674 36.5268 102.402 37.4645 101.464C38.4021 100.527 39.6739 100 41 100C42.3261 100 43.5979 100.527 44.5355 101.464C45.4732 102.402 46 103.674 46 105C46 106.326 45.4732 107.598 44.5355 108.536C43.5979 109.473 42.3261 110 41 110C39.6739 110 38.4021 109.473 37.4645 108.536C36.5268 107.598 36 106.326 36 105Z" fill="#1ABCFE"/>
<path d="M26 115C26 113.674 26.5268 112.402 27.4645 111.464C28.4021 110.527 29.6739 110 31 110H36V115C36 116.326 35.4732 117.598 34.5355 118.536C33.5979 119.473 32.3261 120 31 120C29.6739 120 28.4021 119.473 27.4645 118.536C26.5268 117.598 26 116.326 26 115V115Z" fill="#0ACF83"/>
<path d="M36 90V100H41C42.3261 100 43.5979 99.4732 44.5355 98.5355C45.4732 97.5979 46 96.3261 46 95C46 93.6739 45.4732 92.4021 44.5355 91.4645C43.5979 90.5268 42.3261 90 41 90H36Z" fill="#FF7262"/>
<path d="M26 95C26 96.3261 26.5268 97.5979 27.4645 98.5355C28.4021 99.4732 29.6739 100 31 100H36V90H31C29.6739 90 28.4021 90.5268 27.4645 91.4645C26.5268 92.4021 26 93.6739 26 95V95Z" fill="#F24E1E"/>
<path d="M26 105C26 106.326 26.5268 107.598 27.4645 108.536C28.4021 109.473 29.6739 110 31 110H36V100H31C29.6739 100 28.4021 100.527 27.4645 101.464C26.5268 102.402 26 103.674 26 105V105Z" fill="#A259FF"/>
</g>
<line x1="20" y1="69.5" x2="269" y2="69.5" stroke="#E9E9E9"/>
<path d="M65.25 41L62.0312 29.3594H63.875L66.1406 38.375H66.25L68.6094 29.3594H70.4375L72.7891 38.3828H72.9062L75.1641 29.3594H77.0234L73.7812 41H72.0156L69.5703 32.2891H69.4766L67.0312 41H65.25ZM80.8047 41.1797C79.9505 41.1797 79.2109 40.9948 78.5859 40.625C77.9609 40.2552 77.4792 39.7344 77.1406 39.0625C76.8073 38.3854 76.6406 37.5964 76.6406 36.6953C76.6406 35.7995 76.8047 35.0104 77.1328 34.3281C77.4661 33.6458 77.9323 33.1146 78.5312 32.7344C79.1354 32.349 79.8438 32.1562 80.6562 32.1562C81.151 32.1562 81.6302 32.237 82.0938 32.3984C82.5573 32.5599 82.974 32.8151 83.3438 33.1641C83.7135 33.513 84.0052 33.9661 84.2188 34.5234C84.4375 35.0807 84.5469 35.7526 84.5469 36.5391V37.1484H77.6016V35.875H83.6719L82.8828 36.2969C82.8828 35.7604 82.7995 35.2865 82.6328 34.875C82.4661 34.4635 82.2161 34.1432 81.8828 33.9141C81.5547 33.6797 81.1458 33.5625 80.6562 33.5625C80.1667 33.5625 79.7474 33.6797 79.3984 33.9141C79.0547 34.1484 78.7917 34.4583 78.6094 34.8438C78.4271 35.2292 78.3359 35.651 78.3359 36.1094V36.9766C78.3359 37.5755 78.4401 38.0833 78.6484 38.5C78.8568 38.9167 79.1458 39.2344 79.5156 39.4531C79.8906 39.6719 80.3255 39.7812 80.8203 39.7812C81.1432 39.7812 81.4349 39.7344 81.6953 39.6406C81.9609 39.5469 82.1901 39.4062 82.3828 39.2188C82.5755 39.0312 82.7214 38.7995 82.8203 38.5234L84.4297 38.8281C84.2995 39.2969 84.0703 39.7083 83.7422 40.0625C83.4141 40.4167 83 40.6927 82.5 40.8906C82.0052 41.0833 81.4401 41.1797 80.8047 41.1797ZM90.0391 41.1719C89.513 41.1719 89.0807 41.0833 88.7422 40.9062C88.4089 40.724 88.1458 40.513 87.9531 40.2734C87.7656 40.0339 87.6198 39.8229 87.5156 39.6406H87.375V41H85.7344V29.3594H87.4219V33.6875H87.5156C87.6198 33.5052 87.763 33.2943 87.9453 33.0547C88.1328 32.8151 88.3932 32.6068 88.7266 32.4297C89.0599 32.2474 89.4948 32.1562 90.0312 32.1562C90.7344 32.1562 91.3594 32.3333 91.9062 32.6875C92.4583 33.0417 92.8932 33.5547 93.2109 34.2266C93.5286 34.8984 93.6875 35.7083 93.6875 36.6562C93.6875 37.5938 93.5312 38.401 93.2188 39.0781C92.9062 39.75 92.474 40.2682 91.9219 40.6328C91.375 40.9922 90.7474 41.1719 90.0391 41.1719ZM89.6719 39.7266C90.1771 39.7266 90.599 39.5911 90.9375 39.3203C91.276 39.0495 91.5312 38.6823 91.7031 38.2188C91.8802 37.75 91.9688 37.224 91.9688 36.6406C91.9688 36.0625 91.8828 35.5443 91.7109 35.0859C91.5391 34.6276 91.2839 34.2656 90.9453 34C90.6068 33.7344 90.1823 33.6016 89.6719 33.6016C89.1771 33.6016 88.7604 33.7292 88.4219 33.9844C88.0833 34.2344 87.8255 34.5885 87.6484 35.0469C87.4766 35.5 87.3906 36.0312 87.3906 36.6406C87.3906 37.25 87.4792 37.7865 87.6562 38.25C87.8333 38.7135 88.0911 39.0755 88.4297 39.3359C88.7734 39.5964 89.1875 39.7266 89.6719 39.7266ZM99.0781 32.2656V33.6328H94.1484V32.2656H99.0781ZM95.4922 41V31.25C95.4922 30.7083 95.612 30.2578 95.8516 29.8984C96.0964 29.5339 96.4141 29.263 96.8047 29.0859C97.2005 28.9036 97.625 28.8125 98.0781 28.8125C98.4271 28.8125 98.724 28.8411 98.9688 28.8984C99.2135 28.9557 99.3932 29.0052 99.5078 29.0469L99.1016 30.4219C99.0234 30.3958 98.9219 30.3672 98.7969 30.3359C98.6771 30.3047 98.526 30.2891 98.3438 30.2891C97.9323 30.2891 97.6354 30.3932 97.4531 30.6016C97.2708 30.8047 97.1797 31.1016 97.1797 31.4922V41H95.4922ZM101.844 29.3594V41H100.156V29.3594H101.844ZM107.133 41.1797C106.315 41.1797 105.599 40.9922 104.984 40.6172C104.375 40.2422 103.901 39.7161 103.562 39.0391C103.229 38.362 103.062 37.5755 103.062 36.6797C103.062 35.7734 103.229 34.9818 103.562 34.3047C103.901 33.6224 104.375 33.0938 104.984 32.7188C105.599 32.3438 106.315 32.1562 107.133 32.1562C107.956 32.1562 108.672 32.3438 109.281 32.7188C109.891 33.0938 110.365 33.6224 110.703 34.3047C111.042 34.9818 111.211 35.7734 111.211 36.6797C111.211 37.5755 111.042 38.362 110.703 39.0391C110.365 39.7161 109.891 40.2422 109.281 40.6172C108.672 40.9922 107.956 41.1797 107.133 41.1797ZM107.133 39.75C107.669 39.75 108.112 39.6094 108.461 39.3281C108.81 39.0469 109.068 38.6745 109.234 38.2109C109.406 37.7422 109.492 37.2318 109.492 36.6797C109.492 36.1172 109.406 35.6016 109.234 35.1328C109.068 34.6641 108.81 34.2891 108.461 34.0078C108.112 33.7266 107.669 33.5859 107.133 33.5859C106.602 33.5859 106.161 33.7266 105.812 34.0078C105.469 34.2891 105.211 34.6641 105.039 35.1328C104.867 35.6016 104.781 36.1172 104.781 36.6797C104.781 37.2318 104.867 37.7422 105.039 38.2109C105.211 38.6745 105.469 39.0469 105.812 39.3281C106.161 39.6094 106.602 39.75 107.133 39.75ZM114.055 41L111.492 32.2656H113.242L114.953 38.6797H115.047L116.758 32.2656H118.516L120.211 38.6562H120.297L122 32.2656H123.75L121.188 41H119.461L117.68 34.7031H117.562L115.781 41H114.055Z" fill="#0F0F14"/>
<rect x="227" y="24" width="42" height="22" rx="11" fill="#151B1F"/>
<circle cx="258" cy="35" r="8" fill="white"/>
<path d="M62.9375 111V99.3594H70.1641V100.867H64.6953V104.641H69.6406V106.141H64.6953V111H62.9375ZM71.5156 111V102.266H73.2031V111H71.5156ZM72.3672 100.922C72.0703 100.922 71.8177 100.823 71.6094 100.625C71.401 100.427 71.2969 100.19 71.2969 99.9141C71.2969 99.6328 71.401 99.3932 71.6094 99.1953C71.8177 98.9974 72.0703 98.8984 72.3672 98.8984C72.6589 98.8984 72.9089 98.9974 73.1172 99.1953C73.3307 99.3932 73.4375 99.6328 73.4375 99.9141C73.4375 100.19 73.3307 100.427 73.1172 100.625C72.9089 100.823 72.6589 100.922 72.3672 100.922ZM78.4688 114.453C77.4271 114.453 76.6068 114.258 76.0078 113.867C75.4089 113.477 74.9948 113.013 74.7656 112.477L76.2188 111.875C76.3229 112.042 76.4609 112.219 76.6328 112.406C76.8099 112.594 77.0469 112.753 77.3438 112.883C77.6406 113.013 78.0234 113.078 78.4922 113.078C79.1328 113.078 79.6641 112.922 80.0859 112.609C80.5078 112.302 80.7188 111.807 80.7188 111.125V109.414H80.6016C80.5078 109.596 80.3646 109.802 80.1719 110.031C79.9792 110.255 79.7161 110.451 79.3828 110.617C79.0495 110.784 78.6146 110.867 78.0781 110.867C77.3906 110.867 76.7708 110.706 76.2188 110.383C75.6719 110.055 75.2344 109.576 74.9062 108.945C74.5833 108.31 74.4219 107.529 74.4219 106.602C74.4219 105.674 74.5807 104.88 74.8984 104.219C75.2214 103.552 75.6589 103.042 76.2109 102.688C76.763 102.333 77.3906 102.156 78.0938 102.156C78.6354 102.156 79.0729 102.247 79.4062 102.43C79.7448 102.607 80.0078 102.815 80.1953 103.055C80.3828 103.294 80.5286 103.505 80.6328 103.688H80.7578V102.266H82.4062V111.195C82.4062 111.945 82.2318 112.56 81.8828 113.039C81.5391 113.518 81.0703 113.872 80.4766 114.102C79.8828 114.336 79.2135 114.453 78.4688 114.453ZM78.4531 109.453C79.1875 109.453 79.75 109.201 80.1406 108.695C80.5365 108.185 80.7344 107.479 80.7344 106.578C80.7344 105.99 80.6484 105.474 80.4766 105.031C80.3047 104.583 80.0495 104.234 79.7109 103.984C79.3724 103.729 78.9531 103.602 78.4531 103.602C77.9427 103.602 77.5156 103.734 77.1719 104C76.8333 104.26 76.5781 104.617 76.4062 105.07C76.2344 105.518 76.1484 106.021 76.1484 106.578C76.1484 107.146 76.2344 107.648 76.4062 108.086C76.5781 108.518 76.8359 108.854 77.1797 109.094C77.5286 109.333 77.9531 109.453 78.4531 109.453ZM84.0312 111V102.266H85.6484V103.703H85.7656C85.9479 103.219 86.2448 102.841 86.6562 102.57C87.0729 102.294 87.5677 102.156 88.1406 102.156C88.724 102.156 89.2109 102.294 89.6016 102.57C89.9974 102.841 90.2917 103.219 90.4844 103.703H90.5781C90.7865 103.229 91.1172 102.854 91.5703 102.578C92.0234 102.297 92.5625 102.156 93.1875 102.156C93.9792 102.156 94.6276 102.406 95.1328 102.906C95.638 103.401 95.8906 104.148 95.8906 105.148V111H94.1875V105.305C94.1875 104.711 94.026 104.284 93.7031 104.023C93.3802 103.758 92.9948 103.625 92.5469 103.625C91.9948 103.625 91.5651 103.797 91.2578 104.141C90.9557 104.479 90.8047 104.909 90.8047 105.43V111H89.1016V105.195C89.1016 104.721 88.9557 104.341 88.6641 104.055C88.3724 103.768 87.9896 103.625 87.5156 103.625C87.1927 103.625 86.8932 103.711 86.6172 103.883C86.3464 104.049 86.1276 104.284 85.9609 104.586C85.7995 104.883 85.7188 105.227 85.7188 105.617V111H84.0312ZM100.047 111.188C99.4948 111.188 98.9948 111.086 98.5469 110.883C98.099 110.674 97.7448 110.372 97.4844 109.977C97.224 109.581 97.0938 109.099 97.0938 108.531C97.0938 108.036 97.1875 107.633 97.375 107.32C97.5677 107.003 97.8255 106.75 98.1484 106.562C98.4714 106.375 98.8307 106.234 99.2266 106.141C99.6224 106.047 100.029 105.974 100.445 105.922C100.971 105.865 101.396 105.815 101.719 105.773C102.042 105.732 102.276 105.667 102.422 105.578C102.573 105.484 102.648 105.336 102.648 105.133V105.094C102.648 104.599 102.508 104.216 102.227 103.945C101.951 103.674 101.539 103.539 100.992 103.539C100.424 103.539 99.974 103.664 99.6406 103.914C99.3125 104.159 99.0859 104.438 98.9609 104.75L97.3594 104.383C97.5521 103.852 97.8307 103.424 98.1953 103.102C98.5651 102.773 98.987 102.534 99.4609 102.383C99.9401 102.232 100.44 102.156 100.961 102.156C101.31 102.156 101.68 102.198 102.07 102.281C102.461 102.359 102.828 102.508 103.172 102.727C103.521 102.94 103.805 103.247 104.023 103.648C104.242 104.049 104.352 104.568 104.352 105.203V111H102.688V109.805H102.625C102.521 110.018 102.357 110.232 102.133 110.445C101.914 110.659 101.633 110.836 101.289 110.977C100.945 111.117 100.531 111.188 100.047 111.188ZM100.414 109.828C100.888 109.828 101.292 109.737 101.625 109.555C101.958 109.367 102.214 109.122 102.391 108.82C102.568 108.518 102.656 108.198 102.656 107.859V106.727C102.594 106.784 102.477 106.839 102.305 106.891C102.133 106.943 101.938 106.987 101.719 107.023C101.5 107.06 101.286 107.094 101.078 107.125C100.87 107.151 100.695 107.172 100.555 107.188C100.227 107.234 99.9271 107.307 99.6562 107.406C99.3854 107.5 99.1667 107.641 99 107.828C98.8385 108.01 98.7578 108.253 98.7578 108.555C98.7578 108.977 98.9141 109.294 99.2266 109.508C99.5391 109.721 99.9349 109.828 100.414 109.828Z" fill="#0F0F14"/>
<rect x="227" y="94" width="42" height="22" rx="11" fill="#D8D8D8"/>
<circle cx="238" cy="105" r="8" fill="white"/>
<defs>
<clipPath id="clip0_317_8083">
<rect width="32" height="32" fill="white" transform="translate(20 19)"/>
</clipPath>
<clipPath id="clip1_317_8083">
<rect width="20" height="30" fill="white" transform="translate(26 90)"/>
</clipPath>
</defs>
</svg>
