<svg width="147" height="32" viewBox="0 0 147 32" fill="none" xmlns="http://www.w3.org/2000/svg">
<path d="M48.594 5C49.9287 5 51.116 5.234 52.156 5.702C53.196 6.17 54.0713 6.80267 54.782 7.6C55.4927 8.39733 56.03 9.32467 56.394 10.382C56.7753 11.4393 56.966 12.5487 56.966 13.71C56.966 14.8193 56.8013 15.894 56.472 16.934C56.1427 17.9567 55.6487 18.8753 54.99 19.69C54.3487 20.4873 53.5513 21.146 52.598 21.666C51.6447 22.186 50.544 22.4807 49.296 22.55C50.18 22.5673 50.96 22.6713 51.636 22.862C52.312 23.07 52.9447 23.2867 53.534 23.512C54.1407 23.7547 54.7387 23.9713 55.328 24.162C55.9173 24.3527 56.55 24.448 57.226 24.448C57.4687 24.448 57.7547 24.4133 58.084 24.344C58.4307 24.292 58.7947 24.1533 59.176 23.928L59.254 23.98L59.618 24.708L59.592 24.812C59.1933 25.3147 58.708 25.7393 58.136 26.086C57.564 26.4327 56.9227 26.606 56.212 26.606C55.6227 26.606 55.016 26.4673 54.392 26.19C53.7853 25.93 53.144 25.6353 52.468 25.306C51.792 24.994 51.09 24.6993 50.362 24.422C49.634 24.162 48.8713 24.032 48.074 24.032C47.398 24.032 46.7393 24.1447 46.098 24.37C45.474 24.5953 45.0147 24.838 44.72 25.098L44.642 25.072L44.356 24.058L44.382 23.98C44.7633 23.72 45.2747 23.434 45.916 23.122C46.5573 22.81 47.2507 22.628 47.996 22.576C46.7133 22.5587 45.5867 22.316 44.616 21.848C43.6453 21.38 42.8307 20.756 42.172 19.976C41.5307 19.1787 41.0453 18.26 40.716 17.22C40.3867 16.18 40.222 15.0793 40.222 13.918C40.222 12.6873 40.4127 11.5347 40.794 10.46C41.1753 9.368 41.7213 8.42333 42.432 7.626C43.1427 6.81133 44.018 6.17 45.058 5.702C46.098 5.234 47.2767 5 48.594 5ZM48.568 20.418C49.4173 20.418 50.1713 20.2447 50.83 19.898C51.506 19.534 52.0693 19.0573 52.52 18.468C52.9707 17.8613 53.3173 17.1593 53.56 16.362C53.8027 15.5473 53.924 14.6807 53.924 13.762C53.924 12.826 53.794 11.9593 53.534 11.162C53.2913 10.3473 52.9273 9.64533 52.442 9.056C51.974 8.46667 51.402 8.00733 50.726 7.678C50.05 7.33133 49.2873 7.158 48.438 7.158C47.606 7.158 46.8693 7.32267 46.228 7.652C45.5867 7.98133 45.0493 8.44067 44.616 9.03C44.1827 9.61933 43.8533 10.3213 43.628 11.136C43.4027 11.9333 43.29 12.8 43.29 13.736C43.29 14.7587 43.42 15.686 43.68 16.518C43.94 17.3327 44.304 18.0347 44.772 18.624C45.24 19.196 45.7947 19.638 46.436 19.95C47.0773 20.262 47.788 20.418 48.568 20.418Z" fill="black"/>
<path d="M67.8679 20.054C67.3999 20.7993 66.8193 21.406 66.1259 21.874C65.4326 22.342 64.5573 22.576 63.4999 22.576C63.0146 22.576 62.5379 22.5153 62.0699 22.394C61.6193 22.2727 61.2033 22.082 60.8219 21.822C60.4579 21.562 60.1373 21.224 59.8599 20.808C59.5826 20.3747 59.3833 19.8547 59.2619 19.248C59.2273 19.092 59.1926 18.9187 59.1579 18.728C59.1406 18.5373 59.1233 18.2947 59.1059 18C59.1059 17.688 59.0973 17.3153 59.0799 16.882C59.0799 16.4313 59.0799 15.8767 59.0799 15.218V12.878C59.0799 12.6873 59.0366 12.4967 58.9499 12.306C58.8633 12.1153 58.7939 11.994 58.7419 11.942C58.5686 11.734 58.3519 11.6127 58.0919 11.578C57.8319 11.5433 57.5633 11.526 57.2859 11.526L57.2079 11.422V10.538L57.2859 10.46H58.5599C58.9586 10.46 59.3833 10.46 59.8339 10.46C60.2846 10.4427 60.6833 10.408 61.0299 10.356L61.9399 10.226L62.0959 10.72C62.0613 10.7893 62.0353 10.9193 62.0179 11.11C62.0006 11.2833 61.9833 11.474 61.9659 11.682C61.9486 11.89 61.9399 12.0893 61.9399 12.28C61.9399 12.4707 61.9399 12.618 61.9399 12.722C61.9399 12.9473 61.9313 13.2247 61.9139 13.554C61.9139 13.866 61.9053 14.1953 61.8879 14.542C61.8879 14.8713 61.8793 15.192 61.8619 15.504C61.8619 15.816 61.8619 16.076 61.8619 16.284C61.8619 16.7347 61.8793 17.194 61.9139 17.662C61.9486 18.1127 62.0179 18.5287 62.1219 18.91C62.2953 19.5167 62.5553 19.9673 62.9019 20.262C63.2659 20.5393 63.7686 20.678 64.4099 20.678C64.9299 20.678 65.3893 20.5913 65.7879 20.418C66.2039 20.2447 66.5593 20.0367 66.8539 19.794C67.1486 19.5513 67.3913 19.2913 67.5819 19.014C67.7726 18.7193 67.8939 18.4593 67.9459 18.234V15.634C67.9459 14.8367 67.9286 14.2213 67.8939 13.788C67.8766 13.3547 67.8506 13.0167 67.8159 12.774C67.7813 12.5487 67.7293 12.3667 67.6599 12.228C67.6079 12.0893 67.5559 11.994 67.5039 11.942C67.3133 11.734 67.0706 11.6127 66.7759 11.578C66.4813 11.5433 66.2473 11.526 66.0739 11.526L65.9699 11.422V10.538L66.0739 10.46H66.5419C66.7153 10.46 66.9406 10.46 67.2179 10.46C67.5126 10.46 67.8159 10.46 68.1279 10.46C68.4399 10.4427 68.7433 10.434 69.0379 10.434C69.3326 10.4167 69.5839 10.3907 69.7919 10.356L70.7019 10.226L70.8579 10.72C70.7713 11.2227 70.7106 11.8813 70.6759 12.696C70.6586 13.1293 70.6413 13.4847 70.6239 13.762C70.6239 14.022 70.6239 14.2387 70.6239 14.412C70.6239 14.5853 70.6239 14.724 70.6239 14.828C70.6239 14.9147 70.6239 15.0013 70.6239 15.088V17.22C70.6239 18.1733 70.6499 19.014 70.7019 19.742C70.7366 20.0713 70.7799 20.34 70.8319 20.548C70.8839 20.7387 70.9793 20.8947 71.1179 21.016C71.2739 21.1547 71.4559 21.2413 71.6639 21.276C71.8719 21.2933 72.1233 21.302 72.4179 21.302L72.5219 21.406L72.5739 22.29L72.5219 22.368C72.1926 22.3333 71.8719 22.3073 71.5599 22.29C71.2479 22.29 70.8839 22.29 70.4679 22.29C70.0519 22.29 69.6099 22.29 69.1419 22.29C68.6739 22.3073 68.2233 22.3333 67.7899 22.368L67.6339 21.848C67.6859 21.6573 67.7379 21.406 67.7899 21.094C67.8593 20.7647 67.9113 20.4353 67.9459 20.106L67.8679 20.054Z" fill="black"/>
<path d="M79.9319 22.108C79.9839 21.952 80.0186 21.7267 80.0359 21.432C80.0706 21.1373 80.1139 20.8687 80.1659 20.626L80.1399 20.548C79.9319 20.808 79.6893 21.0593 79.4119 21.302C79.1519 21.5447 78.8573 21.7613 78.5279 21.952C78.1986 22.1427 77.8433 22.29 77.4619 22.394C77.0979 22.5153 76.7079 22.576 76.2919 22.576C75.6679 22.576 75.1219 22.4807 74.6539 22.29C74.1859 22.0993 73.7959 21.848 73.4839 21.536C73.1719 21.224 72.9293 20.86 72.7559 20.444C72.5999 20.028 72.5219 19.5947 72.5219 19.144C72.5219 18.468 72.6693 17.8787 72.9639 17.376C73.2586 16.8733 73.6486 16.466 74.1339 16.154C74.5846 15.8593 75.1133 15.634 75.7199 15.478C76.3266 15.3047 76.9159 15.1747 77.4879 15.088C78.0599 15.0013 78.5799 14.9493 79.0479 14.932C79.5159 14.8973 79.8279 14.88 79.9839 14.88H80.3479C80.3306 14.3427 80.2959 13.9267 80.2439 13.632C80.1919 13.32 80.1226 13.06 80.0359 12.852C79.8799 12.5053 79.6199 12.2627 79.2559 12.124C78.9093 11.968 78.4933 11.89 78.0079 11.89C77.7133 11.89 77.3926 11.916 77.0459 11.968C76.7166 12.0027 76.4046 12.0807 76.1099 12.202C75.8153 12.3233 75.5553 12.4967 75.3299 12.722C75.1219 12.93 75.0006 13.2073 74.9659 13.554L74.8619 13.632H74.0299L73.7959 11.188L73.8739 11.032C73.9779 10.928 74.1773 10.8153 74.4719 10.694C74.7666 10.5727 75.1219 10.46 75.5379 10.356C75.9539 10.2347 76.4046 10.1393 76.8899 10.07C77.3926 9.98333 77.8953 9.94 78.3979 9.94C79.0739 9.94 79.7066 10.0267 80.2959 10.2C80.8853 10.356 81.3879 10.5987 81.8039 10.928C82.2373 11.2573 82.5753 11.6733 82.8179 12.176C83.0606 12.6613 83.1819 13.2333 83.1819 13.892C83.1819 14.6027 83.1733 15.2093 83.1559 15.712C83.1559 16.2147 83.1473 16.6827 83.1299 17.116C83.1126 17.5493 83.0953 17.974 83.0779 18.39C83.0779 18.7887 83.0779 19.2393 83.0779 19.742C83.1126 20.1407 83.1559 20.4267 83.2079 20.6C83.2599 20.7733 83.3466 20.912 83.4679 21.016C83.6066 21.1547 83.8146 21.2413 84.0919 21.276C84.3866 21.2933 84.6553 21.302 84.8979 21.302L84.9759 21.406L85.0279 22.29L85.0019 22.394C84.7073 22.3593 84.3693 22.3333 83.9879 22.316C83.6066 22.2987 83.2513 22.29 82.9219 22.29C82.4366 22.29 81.9513 22.29 81.4659 22.29C80.9806 22.3073 80.5213 22.3333 80.0879 22.368L79.9319 22.108ZM79.9319 19.3C79.9839 19.2133 80.0359 19.1093 80.0879 18.988C80.1573 18.8667 80.2006 18.7193 80.2179 18.546L80.3479 16.336H80.1139C79.5766 16.336 79.0479 16.3707 78.5279 16.44C78.0079 16.5093 77.5399 16.6393 77.1239 16.83C76.7079 17.0207 76.3699 17.2893 76.1099 17.636C75.8499 17.9827 75.7199 18.4333 75.7199 18.988C75.7199 19.456 75.8326 19.8287 76.0579 20.106C76.3006 20.3833 76.6213 20.522 77.0199 20.522C77.3146 20.522 77.6093 20.4873 77.9039 20.418C78.2159 20.3313 78.5019 20.2273 78.7619 20.106C79.0219 19.9847 79.2559 19.8547 79.4639 19.716C79.6719 19.56 79.8279 19.4213 79.9319 19.3Z" fill="black"/>
<path d="M89.5156 12.592C89.9142 11.8293 90.4602 11.1967 91.1536 10.694C91.8469 10.1913 92.6616 9.94 93.5976 9.94C94.1349 9.94 94.6636 10.0093 95.1836 10.148C95.7036 10.2867 96.1716 10.5033 96.5876 10.798C97.0209 11.0927 97.3762 11.474 97.6536 11.942C97.9482 12.3927 98.1389 12.93 98.2256 13.554C98.2776 14.0047 98.3036 14.4813 98.3036 14.984C98.3209 15.4867 98.3296 15.9893 98.3296 16.492C98.3469 17.0813 98.3556 17.6273 98.3556 18.13C98.3556 18.6153 98.3556 19.1527 98.3556 19.742C98.3556 20.1407 98.3989 20.444 98.4856 20.652C98.5896 20.8427 98.7109 20.9727 98.8496 21.042C99.0402 21.146 99.2396 21.2153 99.4476 21.25C99.6729 21.2847 99.9242 21.302 100.202 21.302L100.28 21.406L100.332 22.29L100.28 22.394C99.9156 22.3593 99.5082 22.3333 99.0576 22.316C98.6242 22.2987 98.1996 22.29 97.7836 22.29C97.3676 22.29 96.9516 22.29 96.5356 22.29C96.1196 22.3073 95.7296 22.3333 95.3656 22.368L95.1836 21.848C95.2356 21.6227 95.2789 21.2847 95.3136 20.834C95.3656 20.3833 95.4002 20.0193 95.4176 19.742C95.4522 19.0833 95.4782 18.468 95.4956 17.896C95.5129 17.324 95.5216 16.8127 95.5216 16.362C95.5216 15.9633 95.5129 15.53 95.4956 15.062C95.4782 14.594 95.4176 14.1867 95.3136 13.84C95.1749 13.2853 94.8889 12.878 94.4556 12.618C94.0396 12.3407 93.5542 12.202 92.9996 12.202C92.4796 12.202 92.0029 12.2973 91.5696 12.488C91.1362 12.6787 90.7636 12.9127 90.4516 13.19C90.1569 13.45 89.9229 13.7273 89.7496 14.022C89.5762 14.3167 89.4896 14.5767 89.4896 14.802V17.48C89.4896 17.8267 89.4896 18.1127 89.4896 18.338C89.4896 18.546 89.4896 18.728 89.4896 18.884C89.5069 19.04 89.5156 19.1873 89.5156 19.326C89.5329 19.4473 89.5502 19.586 89.5676 19.742C89.6022 20.106 89.6716 20.3833 89.7756 20.574C89.8969 20.7473 90.0269 20.8947 90.1656 21.016C90.3042 21.1547 90.4689 21.2413 90.6596 21.276C90.8502 21.2933 91.0756 21.302 91.3356 21.302L91.4656 21.432L91.5176 22.29L91.4656 22.394C91.3442 22.394 91.1622 22.3853 90.9196 22.368C90.6769 22.3507 90.4169 22.3333 90.1396 22.316C89.8622 22.316 89.6022 22.3073 89.3596 22.29C89.1169 22.29 88.9349 22.29 88.8136 22.29H87.3836C87.2622 22.29 87.0716 22.29 86.8116 22.29C86.5689 22.3073 86.3089 22.316 86.0316 22.316C85.7716 22.3333 85.5116 22.3507 85.2516 22.368C85.0089 22.3853 84.8269 22.394 84.7056 22.394L84.6796 22.29L84.7316 21.406L84.8096 21.302C85.0869 21.302 85.3296 21.2933 85.5376 21.276C85.7629 21.2413 85.9449 21.1547 86.0836 21.016C86.2049 20.8947 86.3176 20.7387 86.4216 20.548C86.5256 20.3573 86.5949 20.0887 86.6296 19.742C86.6469 19.6207 86.6556 19.4993 86.6556 19.378C86.6729 19.2567 86.6816 19.1267 86.6816 18.988C86.6989 18.8493 86.7076 18.6847 86.7076 18.494C86.7076 18.3033 86.7076 18.0693 86.7076 17.792V15.114C86.7076 14.7847 86.7076 14.5073 86.7076 14.282C86.7076 14.0567 86.6989 13.8573 86.6816 13.684C86.6816 13.5107 86.6729 13.3547 86.6556 13.216C86.6556 13.0773 86.6469 12.93 86.6296 12.774C86.5949 12.6007 86.5429 12.436 86.4736 12.28C86.4042 12.124 86.3436 12.02 86.2916 11.968C86.1182 11.7427 85.9016 11.6127 85.6416 11.578C85.3816 11.5433 85.1129 11.526 84.8356 11.526L84.7316 11.422V10.538L84.8356 10.46H86.1616C86.5602 10.46 86.9849 10.46 87.4356 10.46C87.9036 10.4427 88.3109 10.408 88.6576 10.356L89.5676 10.226L89.7236 10.72C89.5849 10.9107 89.4982 11.1793 89.4636 11.526C89.4462 11.8553 89.4376 12.1933 89.4376 12.54L89.5156 12.592Z" fill="black"/>
<path d="M107.265 11.89H104.405C104.405 12.8953 104.396 13.8313 104.379 14.698C104.379 15.5473 104.379 16.2927 104.379 16.934C104.379 17.558 104.37 18.0693 104.353 18.468C104.353 18.8667 104.353 19.1093 104.353 19.196C104.353 19.872 104.483 20.3227 104.743 20.548C105.003 20.7733 105.306 20.886 105.653 20.886C105.913 20.886 106.208 20.86 106.537 20.808C106.866 20.756 107.144 20.6867 107.369 20.6L107.525 20.886L107.265 21.744C106.797 22.004 106.312 22.2033 105.809 22.342C105.324 22.498 104.873 22.576 104.457 22.576C103.4 22.576 102.646 22.3333 102.195 21.848C101.744 21.3627 101.519 20.7387 101.519 19.976C101.519 19.82 101.528 19.5167 101.545 19.066C101.562 18.598 101.58 18.0173 101.597 17.324C101.614 16.6133 101.632 15.7987 101.649 14.88C101.666 13.9613 101.675 12.9647 101.675 11.89H100.323L100.219 11.76V10.616L100.323 10.512L101.675 10.148C101.675 9.59333 101.658 9.03 101.623 8.458C101.606 7.86867 101.58 7.29667 101.545 6.742L101.727 6.586L102.091 6.56C102.212 6.56 102.377 6.55133 102.585 6.534C102.81 6.51667 103.044 6.49933 103.287 6.482C103.53 6.44733 103.755 6.41267 103.963 6.378C104.188 6.34333 104.353 6.30867 104.457 6.274L104.691 6.378C104.604 6.81133 104.535 7.392 104.483 8.12C104.431 8.83067 104.405 9.50667 104.405 10.148L107.265 9.992L107.395 10.096V11.76L107.265 11.89Z" fill="black"/>
<path d="M117.715 20.054C117.247 20.7993 116.666 21.406 115.973 21.874C115.279 22.342 114.404 22.576 113.347 22.576C112.861 22.576 112.385 22.5153 111.917 22.394C111.466 22.2727 111.05 22.082 110.669 21.822C110.305 21.562 109.984 21.224 109.707 20.808C109.429 20.3747 109.23 19.8547 109.109 19.248C109.074 19.092 109.039 18.9187 109.005 18.728C108.987 18.5373 108.97 18.2947 108.953 18C108.953 17.688 108.944 17.3153 108.927 16.882C108.927 16.4313 108.927 15.8767 108.927 15.218V12.878C108.927 12.6873 108.883 12.4967 108.797 12.306C108.71 12.1153 108.641 11.994 108.589 11.942C108.415 11.734 108.199 11.6127 107.939 11.578C107.679 11.5433 107.41 11.526 107.133 11.526L107.055 11.422V10.538L107.133 10.46H108.407C108.805 10.46 109.23 10.46 109.681 10.46C110.131 10.4427 110.53 10.408 110.877 10.356L111.787 10.226L111.943 10.72C111.908 10.7893 111.882 10.9193 111.865 11.11C111.847 11.2833 111.83 11.474 111.813 11.682C111.795 11.89 111.787 12.0893 111.787 12.28C111.787 12.4707 111.787 12.618 111.787 12.722C111.787 12.9473 111.778 13.2247 111.761 13.554C111.761 13.866 111.752 14.1953 111.735 14.542C111.735 14.8713 111.726 15.192 111.709 15.504C111.709 15.816 111.709 16.076 111.709 16.284C111.709 16.7347 111.726 17.194 111.761 17.662C111.795 18.1127 111.865 18.5287 111.969 18.91C112.142 19.5167 112.402 19.9673 112.749 20.262C113.113 20.5393 113.615 20.678 114.257 20.678C114.777 20.678 115.236 20.5913 115.635 20.418C116.051 20.2447 116.406 20.0367 116.701 19.794C116.995 19.5513 117.238 19.2913 117.429 19.014C117.619 18.7193 117.741 18.4593 117.793 18.234V15.634C117.793 14.8367 117.775 14.2213 117.741 13.788C117.723 13.3547 117.697 13.0167 117.663 12.774C117.628 12.5487 117.576 12.3667 117.507 12.228C117.455 12.0893 117.403 11.994 117.351 11.942C117.16 11.734 116.917 11.6127 116.623 11.578C116.328 11.5433 116.094 11.526 115.921 11.526L115.817 11.422V10.538L115.921 10.46H116.389C116.562 10.46 116.787 10.46 117.065 10.46C117.359 10.46 117.663 10.46 117.975 10.46C118.287 10.4427 118.59 10.434 118.885 10.434C119.179 10.4167 119.431 10.3907 119.639 10.356L120.549 10.226L120.705 10.72C120.618 11.2227 120.557 11.8813 120.523 12.696C120.505 13.1293 120.488 13.4847 120.471 13.762C120.471 14.022 120.471 14.2387 120.471 14.412C120.471 14.5853 120.471 14.724 120.471 14.828C120.471 14.9147 120.471 15.0013 120.471 15.088V17.22C120.471 18.1733 120.497 19.014 120.549 19.742C120.583 20.0713 120.627 20.34 120.679 20.548C120.731 20.7387 120.826 20.8947 120.965 21.016C121.121 21.1547 121.303 21.2413 121.511 21.276C121.719 21.2933 121.97 21.302 122.265 21.302L122.369 21.406L122.421 22.29L122.369 22.368C122.039 22.3333 121.719 22.3073 121.407 22.29C121.095 22.29 120.731 22.29 120.315 22.29C119.899 22.29 119.457 22.29 118.989 22.29C118.521 22.3073 118.07 22.3333 117.637 22.368L117.481 21.848C117.533 21.6573 117.585 21.406 117.637 21.094C117.706 20.7647 117.758 20.4353 117.793 20.106L117.715 20.054Z" fill="black"/>
<path d="M122.447 10.538L122.551 10.46H123.851C124.249 10.46 124.674 10.46 125.125 10.46C125.593 10.4427 126 10.408 126.347 10.356L127.257 10.226L127.413 10.72C127.378 10.8067 127.343 10.928 127.309 11.084C127.291 11.2227 127.265 11.3787 127.231 11.552C127.213 11.7253 127.196 11.8987 127.179 12.072C127.161 12.228 127.153 12.3667 127.153 12.488L127.231 12.54C127.421 12.1933 127.638 11.864 127.881 11.552C128.141 11.2227 128.435 10.9453 128.765 10.72C129.094 10.4773 129.467 10.2867 129.883 10.148C130.299 10.0093 130.775 9.94 131.313 9.94C132.266 9.94 133.115 10.1827 133.861 10.668C134.623 11.1533 135.169 11.8293 135.499 12.696C135.689 12.384 135.915 12.0633 136.175 11.734C136.435 11.4047 136.738 11.11 137.085 10.85C137.431 10.5727 137.821 10.356 138.255 10.2C138.705 10.0267 139.208 9.94 139.763 9.94C140.3 9.94 140.82 10.0093 141.323 10.148C141.825 10.2867 142.285 10.5033 142.701 10.798C143.117 11.0927 143.472 11.4653 143.767 11.916C144.061 12.3667 144.269 12.9127 144.391 13.554C144.477 14.0047 144.521 14.4813 144.521 14.984C144.538 15.4867 144.547 15.9893 144.547 16.492V19.742C144.547 20.0887 144.59 20.34 144.677 20.496C144.781 20.652 144.876 20.7993 144.963 20.938C145.084 21.1113 145.275 21.2153 145.535 21.25C145.812 21.2847 146.089 21.302 146.367 21.302L146.471 21.406L146.523 22.29L146.471 22.394C146.159 22.3593 145.821 22.3333 145.457 22.316C145.093 22.2987 144.737 22.29 144.391 22.29C143.333 22.29 142.38 22.316 141.531 22.368L141.349 21.848C141.401 21.6227 141.444 21.328 141.479 20.964C141.531 20.6 141.565 20.2793 141.583 20.002C141.6 19.7767 141.609 19.482 141.609 19.118C141.626 18.754 141.643 18.39 141.661 18.026C141.678 17.6447 141.687 17.298 141.687 16.986C141.704 16.6567 141.713 16.4053 141.713 16.232C141.713 15.8853 141.695 15.452 141.661 14.932C141.643 14.3947 141.591 13.944 141.505 13.58C141.366 13.1293 141.106 12.7913 140.725 12.566C140.343 12.3233 139.919 12.202 139.451 12.202C139 12.202 138.584 12.2713 138.203 12.41C137.839 12.5313 137.509 12.6873 137.215 12.878C136.92 13.0687 136.669 13.2853 136.461 13.528C136.27 13.7707 136.123 13.996 136.019 14.204C136.053 14.5853 136.071 14.9667 136.071 15.348C136.088 15.7293 136.097 16.1107 136.097 16.492V19.742C136.097 20.106 136.131 20.3747 136.201 20.548C136.287 20.7213 136.4 20.8773 136.539 21.016C136.695 21.1547 136.885 21.2413 137.111 21.276C137.353 21.2933 137.605 21.302 137.865 21.302L137.995 21.432L138.047 22.29L137.995 22.394C137.873 22.394 137.691 22.3853 137.449 22.368C137.206 22.3507 136.946 22.3333 136.669 22.316C136.391 22.316 136.131 22.3073 135.889 22.29C135.646 22.29 135.464 22.29 135.343 22.29H133.939C133.817 22.29 133.627 22.29 133.367 22.29C133.124 22.3073 132.864 22.316 132.587 22.316C132.327 22.3333 132.067 22.3507 131.807 22.368C131.564 22.3853 131.382 22.394 131.261 22.394L131.209 22.29L131.261 21.406L131.365 21.302C131.642 21.302 131.902 21.2933 132.145 21.276C132.405 21.2413 132.604 21.1547 132.743 21.016C132.881 20.8947 132.977 20.7387 133.029 20.548C133.098 20.3573 133.141 20.0887 133.159 19.742C133.159 19.534 133.167 19.2653 133.185 18.936C133.202 18.5893 133.211 18.2427 133.211 17.896C133.228 17.5493 133.237 17.2287 133.237 16.934C133.254 16.622 133.263 16.388 133.263 16.232C133.263 16.0587 133.263 15.8593 133.263 15.634C133.263 15.3913 133.254 15.1487 133.237 14.906C133.219 14.6633 133.193 14.4293 133.159 14.204C133.141 13.9787 133.107 13.7707 133.055 13.58C132.899 13.1293 132.63 12.7913 132.249 12.566C131.885 12.3233 131.469 12.202 131.001 12.202C130.429 12.202 129.909 12.2973 129.441 12.488C128.973 12.6787 128.565 12.9127 128.219 13.19C127.889 13.4673 127.629 13.7533 127.439 14.048C127.265 14.3427 127.179 14.6027 127.179 14.828V17.22C127.179 17.6013 127.179 17.9133 127.179 18.156C127.196 18.3987 127.205 18.6067 127.205 18.78C127.222 18.9533 127.231 19.118 127.231 19.274C127.248 19.4127 127.265 19.5687 127.283 19.742C127.317 20.106 127.395 20.3833 127.517 20.574C127.638 20.7473 127.794 20.912 127.985 21.068C128.123 21.1893 128.279 21.2587 128.453 21.276C128.643 21.2933 128.843 21.302 129.051 21.302L129.181 21.432L129.233 22.29L129.181 22.394C129.059 22.394 128.869 22.3853 128.609 22.368C128.366 22.3507 128.106 22.3333 127.829 22.316C127.569 22.316 127.309 22.3073 127.049 22.29C126.806 22.29 126.624 22.29 126.503 22.29H125.099C124.977 22.29 124.787 22.29 124.527 22.29C124.284 22.3073 124.024 22.316 123.747 22.316C123.487 22.3333 123.227 22.3507 122.967 22.368C122.724 22.3853 122.542 22.394 122.421 22.394L122.395 22.29L122.447 21.406L122.525 21.302C122.802 21.302 123.053 21.2847 123.279 21.25C123.521 21.2153 123.712 21.1287 123.851 20.99C123.972 20.8687 124.076 20.7213 124.163 20.548C124.249 20.3573 124.31 20.0887 124.345 19.742C124.362 19.4647 124.379 19.1873 124.397 18.91C124.414 18.6153 124.423 18.156 124.423 17.532V15.374C124.423 15.01 124.423 14.7067 124.423 14.464C124.423 14.204 124.414 13.9787 124.397 13.788C124.397 13.5973 124.388 13.424 124.371 13.268C124.371 13.112 124.362 12.9473 124.345 12.774C124.31 12.6007 124.258 12.436 124.189 12.28C124.119 12.124 124.059 12.02 124.007 11.968C123.833 11.7427 123.617 11.6127 123.357 11.578C123.097 11.5433 122.828 11.526 122.551 11.526L122.447 11.422V10.538Z" fill="black"/>
<circle cx="16" cy="16" r="16" fill="black"/>
<circle cx="16" cy="14" r="6" stroke="white" stroke-width="4"/>
<path d="M9.44721 23.1056C9.786 22.428 10.4785 22 11.2361 22H24L22.5528 24.8944C22.214 25.572 21.5215 26 20.7639 26H8L9.44721 23.1056Z" fill="white"/>
</svg>
