<svg width="20" height="20" viewBox="0 0 20 20" fill="none" xmlns="http://www.w3.org/2000/svg">
<path d="M19.196 6.07039L16.8366 8.42195C16.3679 13.8829 11.7585 18.1251 6.2507 18.1251C5.11788 18.1251 4.18038 17.9454 3.46945 17.5938C2.89913 17.3048 2.66476 17.0001 2.60226 16.9063C2.55055 16.8278 2.51723 16.7386 2.50478 16.6454C2.49233 16.5522 2.50107 16.4573 2.53036 16.368C2.55964 16.2786 2.60872 16.197 2.67392 16.1293C2.73912 16.0615 2.81878 16.0093 2.90695 15.9766C2.92257 15.9688 4.76632 15.2657 5.96163 13.9141C5.22034 13.3863 4.56878 12.7427 4.03195 12.0079C2.96163 10.5548 1.82882 8.03132 2.50851 4.2657C2.52988 4.15375 2.58108 4.04965 2.65671 3.96439C2.73234 3.87913 2.82959 3.81589 2.9382 3.78132C3.04714 3.74565 3.16381 3.74063 3.27542 3.76681C3.38703 3.79299 3.48929 3.84936 3.57101 3.92976C3.59445 3.96101 6.19601 6.52351 9.3757 7.35164V6.87507C9.37876 6.37954 9.47941 5.88945 9.67188 5.43281C9.86436 4.97617 10.1449 4.56191 10.4975 4.21369C10.85 3.86547 11.2677 3.59011 11.7267 3.40332C12.1857 3.21653 12.677 3.12199 13.1726 3.12507C13.823 3.13435 14.4598 3.31193 15.0212 3.64053C15.5825 3.96912 16.0492 4.43751 16.3757 5.00007H18.7507C18.8741 4.99969 18.9948 5.03583 19.0977 5.10396C19.2006 5.17208 19.281 5.26913 19.3288 5.38289C19.3738 5.49833 19.3853 5.62416 19.3618 5.74583C19.3383 5.8675 19.2808 5.98002 19.196 6.07039Z" fill="black"/>
</svg>
